<svg xmlns="http://www.w3.org/2000/svg" viewBox="0 0 137 40" width="137" height="40"><path d="M0 4.19v31.62A4.18 4.18 0 0 0 4.17 40h128.65a4.19 4.19 0 0 0 4.18-4.19V4.19A4.19 4.19 0 0 0 132.82 0H4.17A4.18 4.18 0 0 0 0 4.19Z" fill-rule="evenodd"/><path d="M28.93 18.7a5 5 0 0 1 2.37-4.19 5.07 5.07 0 0 0-4-2.18c-1.69-.18-3.33 1-4.19 1s-2.2-1-3.62-1a5.34 5.34 0 0 0-4.49 2.8c-2 3.38-.5 8.35 1.37 11.09.93 1.34 2 2.83 3.44 2.78s1.92-.89 3.6-.89S25.55 29 27 29s2.44-1.34 3.34-2.69a11.18 11.18 0 0 0 1.53-3.13 4.81 4.81 0 0 1-2.94-4.48Zm-2.74-8.17A5 5 0 0 0 27.31 7a5 5 0 0 0-3.23 1.68 4.69 4.69 0 0 0-1.15 3.39 4.16 4.16 0 0 0 3.26-1.54Zm23.74 14.19h1.88L47.7 13.29h-1.9l-4.1 11.43h1.81l1.05-3h4.33Zm-3.27-9.35h.13l1.65 4.83H45Zm10.12.63a3 3 0 0 0-2.7 1.57H54v-1.48h-1.67v11.42H54v-4.1h.14a2.78 2.78 0 0 0 2.64 1.45c2.16 0 3.54-1.72 3.54-4.46S59 16 56.78 16Zm-.48 7.38c-1.42 0-2.31-1.12-2.31-2.92s.89-2.93 2.32-2.93 2.29 1.1 2.29 2.92-.86 2.88-2.3 2.88ZM65.57 16a3 3 0 0 0-2.7 1.57h-.12v-1.48h-1.64v11.42h1.7v-4.1h.13a2.8 2.8 0 0 0 2.64 1.45c2.17 0 3.55-1.72 3.55-4.46S67.75 16 65.57 16Zm-.48 7.38c-1.42 0-2.31-1.12-2.31-2.92s.89-2.93 2.31-2.93 2.3 1.1 2.3 2.92-.86 2.88-2.3 2.88Zm7.63-1.68c.12 2 1.82 3.34 4.34 3.34 2.69 0 4.38-1.37 4.38-3.55 0-1.72-1-2.67-3.29-3.22l-1.26-.3c-1.48-.35-2.08-.82-2.08-1.64 0-1 .93-1.7 2.33-1.7a2.18 2.18 0 0 1 2.4 1.71h1.72c-.1-1.92-1.79-3.28-4.1-3.28C74.68 13 73 14.37 73 16.4c0 1.68.94 2.68 3 3.16l1.46.36c1.51.36 2.17.88 2.17 1.75s-1 1.75-2.46 1.75-2.58-.69-2.72-1.77ZM82.9 14v2.13h-1.41v1.44h1.41v4.87c0 1.66.75 2.33 2.63 2.33a5 5 0 0 0 .91-.09v-1.42a6.26 6.26 0 0 1-.63 0c-.85 0-1.22-.4-1.22-1.3v-4.39h1.93v-1.44h-1.93V14Zm7.82 9.37c-1.48 0-2.3-1.08-2.3-3s.82-3 2.3-3 2.3 1.09 2.3 3-.84 3-2.3 3Zm0 1.51c2.5 0 4-1.68 4-4.48s-1.55-4.47-4-4.47-4 1.69-4 4.47 1.48 4.48 4 4.48Zm4.81-.16h1.7v-5.09a2 2 0 0 1 2.18-2 4.58 4.58 0 0 1 .94.1V16a4.16 4.16 0 0 0-.75 0 2.31 2.31 0 0 0-2.31 1.47h-.13v-1.38h-1.63Zm8.63-7.34a2.07 2.07 0 0 1 2.11 2.23h-4.33a2.19 2.19 0 0 1 2.22-2.23Zm2.11 5a2.07 2.07 0 0 1-2 1 2.27 2.27 0 0 1-2.33-2.38v-.09H108v-.59c0-2.71-1.44-4.35-3.83-4.35s-4 1.75-4 4.5 1.51 4.45 4 4.45c2 0 3.33-.95 3.72-2.49Z" fill="#fff" fill-rule="evenodd"/></svg>