<svg xmlns="http://www.w3.org/2000/svg" width="16" height="16" viewBox="0 0 24 24" fill="rgb(166, 172, 177)">
	<path d="M5.806 10.452a1.548 1.548 0 1 1 3.097 0 1.548 1.548 0 0 1-3.097 0Zm1.549 3.096a1.548 1.548 0 1 0 0 3.097 1.548 1.548 0 0 0 0-3.097Zm3.097-3.096a1.548 1.548 0 1 1 3.096 0 1.548 1.548 0 0 1-3.096 0ZM12 13.548a1.548 1.548 0 1 0 0 3.097 1.548 1.548 0 0 0 0-3.097Zm3.097-3.096a1.548 1.548 0 1 1 3.097 0 1.548 1.548 0 0 1-3.097 0Zm1.548 3.096a1.548 1.548 0 1 0 0 3.097 1.548 1.548 0 0 0 0-3.097Z"/>
	<path fill-rule="evenodd" d="M5.806 0c.642 0 1.162.52 1.162 1.161v.387h10.064v-.387a1.161 1.161 0 1 1 2.323 0v.504A5.808 5.808 0 0 1 24 7.355v10.838C24 21.4 21.4 24 18.194 24H5.806A5.806 5.806 0 0 1 0 18.194V7.354a5.808 5.808 0 0 1 4.645-5.69v-.503C4.645.52 5.165 0 5.806 0Zm0 3.871a3.484 3.484 0 0 0-3.483 3.484v10.838a3.484 3.484 0 0 0 3.483 3.484h12.387a3.484 3.484 0 0 0 3.484-3.483V7.354a3.484 3.484 0 0 0-3.483-3.483H5.806Z" clip-rule="evenodd"/>
</svg>
