<svg xmlns="http://www.w3.org/2000/svg" viewBox="0 0 137 40" width="137" height="40"><path d="M0 4.19v31.62A4.18 4.18 0 0 0 4.17 40h128.65a4.19 4.19 0 0 0 4.18-4.19V4.19A4.19 4.19 0 0 0 132.82 0H4.17A4.18 4.18 0 0 0 0 4.19Z" fill-rule="evenodd"/><path d="m11.44 30.69 9.65-9.62 3.41 3.39L13 30.82a1.43 1.43 0 0 1-1.4 0Zm8.68-10.59-9.2 9.17V10.92Zm5.75-3.8 4.5 2.5a1.37 1.37 0 0 1 0 2.4l-4.62 2.56-3.68-3.66ZM11.34 9.4a1.21 1.21 0 0 1 .28-.21 1.43 1.43 0 0 1 1.4 0l11.6 6.43-3.53 3.51Zm92.4 3.06H98v12.77h1.86v-4.92h3.87a3.81 3.81 0 0 0 3-3.93 3.79 3.79 0 0 0-2.99-3.92Zm-.66 6.11h-3.21v-4.21h3.21s1.62 0 1.62 2.1-1.62 2.11-1.62 2.11Zm4.78-6.11h1.86v12.77h-1.86Zm6.83 4.28a3.76 3.76 0 0 0-3.47 1.76l1.55.9s.38-.9 2.07-.9a1.75 1.75 0 0 1 1.77 1.41v.37a5.94 5.94 0 0 0-3.37-.42 2.44 2.44 0 0 0-2.24 2.66 2.55 2.55 0 0 0 3 2.65 4.51 4.51 0 0 0 2.62-.88v.91h1.86v-5.52c-.01-.75-.56-2.94-3.79-2.94Zm-1.91 5.87c.12-2 3.7-1 3.7-1a3.2 3.2 0 0 1 0 .66c-.27 1.37-3.83 2.31-3.7.34Zm10.11 0L120.51 17h-1.86l3.35 7.75-1.73 4h1.86l5-11.73h-1.86Zm-33-5.84C93 16.74 93.85 20 93.85 20L88 22.39a2.09 2.09 0 0 0 2.14 1.33 2.77 2.77 0 0 0 2.17-1.21l1.49 1a4.5 4.5 0 0 1-3.67 1.91 4.33 4.33 0 0 1-4.36-4.29 4.22 4.22 0 0 1 4.14-4.39Zm-.17 1.69a2 2 0 0 1 1.87.9l-4 1.59a2.25 2.25 0 0 1 2.15-2.52Zm-6.79-6h2V25.2H83Zm-3.13 5.36V17h1.82v8a4 4 0 0 1-4.18 4.23 4.16 4.16 0 0 1-3.88-2.56l1.67-.69a2.39 2.39 0 0 0 2.29 1.58 2.25 2.25 0 0 0 2.28-2.45v-.87a2.91 2.91 0 0 1-2.46 1.08 4.33 4.33 0 0 1 0-8.65 2.93 2.93 0 0 1 2.46 1.15Zm.1 3.29a2.41 2.41 0 1 1-4.8 0 2.41 2.41 0 1 1 4.8 0Zm-7.53 0A4.43 4.43 0 1 1 68 16.74a4.38 4.38 0 0 1 4.37 4.34Zm-2 0a2.49 2.49 0 1 1-2.48-2.64 2.56 2.56 0 0 1 2.51 2.61Zm-7.6 0a4.43 4.43 0 1 1-4.43-4.34 4.38 4.38 0 0 1 4.46 4.31Zm-2 0a2.49 2.49 0 1 1-2.49-2.64 2.56 2.56 0 0 1 2.55 2.61Zm-7.56-2.89v-.07h-6.27v1.81h4.54c-.43 2.46-2.2 3.63-4.57 3.63a4.85 4.85 0 1 1 0-9.69 4.72 4.72 0 0 1 3.39 1.29l1.34-1.31A6.54 6.54 0 0 0 46.86 12a6.72 6.72 0 1 0 0 13.43c3.85.03 7.06-2.63 6.41-7.24Z" fill="#fff" fill-rule="evenodd"/></svg>