<svg xmlns="http://www.w3.org/2000/svg" width="12" height="12" viewBox="0 0 24 24">
	<path xmlns="http://www.w3.org/2000/svg" fill="rgb(122, 130, 139)" d="M12.345 24c-1.231 0-2.232-1-2.232-2.232a2.234 2.234 0 0 1 2.232-2.232 2.234 2.234 0 0 1 2.231 2.232A2.234 2.234 0 0 1 12.345 24Zm3.584-11.2c-1.014.623-1.637 1.65-1.637 2.76a1.962 1.962 0 0 1-1.96 1.961 1.963 1.963 0 0 1-1.962-1.961c0-2.49 1.312-4.761 3.517-6.114a2.94 2.94 0 0 0 1.42-2.597c-.014-1.515-1.326-2.854-2.854-2.922-1.596-.08-2.935 1.123-3.084 2.706C9.274 7.715 8.3 8.486 7.232 8.405A1.96 1.96 0 0 1 5.46 6.267C5.785 2.615 8.91-.13 12.615.005c3.598.149 6.56 3.192 6.628 6.79a6.931 6.931 0 0 1-3.314 6.005Z"/>
</svg>
