<svg width="130" height="38" xmlns="http://www.w3.org/2000/svg" viewBox="0 0 130 38"><path d="m43.09 25.72-5.76 11.81h3.79l.61-1.41h3.79l.14 1.41h3.6l-2.38-11.81Zm-.42 8 1.82-4.36.61 4.36ZM25.17 3.84A8.38 8.38 0 0 1 23 2.44 9 9 0 0 1 27.88.38a11.79 11.79 0 0 0-2.71 3.46Zm14.46 8.53h18c-.7 1.17-1.64 2.25-2.66 2.25H42.15c-.61.05-.61.61 0 .7h12.54c-.42.89-1.45 2.25-2.62 2.25H40.66c-.61.09-.61.56 0 .66H52a3.9 3.9 0 0 1-3 2.24h-9.84c-.56.1-.56.57.05.66h9.91a3.74 3.74 0 0 1-3.12 2.3h-9.79a4.65 4.65 0 0 1-4.12-3.05c4.59-1.92 6.91-4.68 7.54-8.01Zm-1.55 16.3H34.9l-1.31 8.86H29.8l1.36-8.86h-3.37l.56-3h10.29ZM28.49 4.59a9 9 0 0 1-2.71-.51A10.51 10.51 0 0 1 28.49.75Zm-6 11.25a9.34 9.34 0 0 1-2.7-6.14h4a12.43 12.43 0 0 0 1.08 4.64 9.84 9.84 0 0 0-2.41 1.5ZM8.66 20.47a3.9 3.9 0 0 1-3-2.24h11.28c.6-.1.6-.57 0-.66H5.52c-1.17 0-2.2-1.36-2.62-2.25h12.54c.61-.09.61-.65 0-.7H2.67c-1 0-2-1.08-2.67-2.25h18c.65 3.33 2.94 6.09 7.53 8a4.64 4.64 0 0 1-4.12 3.05H11.6a3.77 3.77 0 0 1-3.13-2.3h9.92c.6-.09.6-.56 0-.66Zm5.7 5.25L12 37.53H8.19l2.34-11.81Zm5.8 0-5.8 11.81h3.84l.61-1.41h3.74l.23 1.41h3.51L24 25.72Zm-.42 8 1.78-4.36.66 4.36ZM23.81 9h-4a9.08 9.08 0 0 1 2.67-6.13 10.15 10.15 0 0 0 2.43 1.5A12 12 0 0 0 23.81 9Zm5.9-8.62a9 9 0 0 1 4.91 2.06 8.06 8.06 0 0 1-2.2 1.4A12.29 12.29 0 0 0 29.71.38Zm2.1 3.7a7.6 7.6 0 0 1-2.66.51V.75a10.93 10.93 0 0 1 2.66 3.33Zm1.31 5h-4V5.25a9.08 9.08 0 0 0 2.94-.61A10.25 10.25 0 0 1 33.12 9Zm-.7 5.86a8.57 8.57 0 0 1 2.2 1.36 9.13 9.13 0 0 1-4.91 2.11 11.67 11.67 0 0 0 2.71-3.51Zm-.33-.84a8.78 8.78 0 0 0-2.94-.57V9.7h4a10 10 0 0 1-1.06 4.36Zm3 1.78a10.61 10.61 0 0 0-2.39-1.5 12.34 12.34 0 0 0 1-4.64h4a9.41 9.41 0 0 1-2.56 6.1ZM32.75 4.41a11 11 0 0 0 2.39-1.5A9.17 9.17 0 0 1 37.8 9h-4a13.1 13.1 0 0 0-1.05-4.59Zm-4.26 9.08a9.07 9.07 0 0 0-3 .57 10.62 10.62 0 0 1-1-4.36h4Zm0-4.45h-4a11.23 11.23 0 0 1 1-4.4 9.1 9.1 0 0 0 3 .61Zm0 9a10.47 10.47 0 0 1-2.71-3.32 7.72 7.72 0 0 1 2.71-.52Zm-.61.38A9.16 9.16 0 0 1 23 16.26a8.23 8.23 0 0 1 2.2-1.36 11.67 11.67 0 0 0 2.68 3.47Zm1.27-.42v-3.85a8.65 8.65 0 0 1 2.66.52A11.75 11.75 0 0 1 29.15 18Zm36.67-7.45h.76v27.22h-.76Zm12.7 1.89-3 8.7h1.16l.91-2.74h3.08l.92 2.74h1.2l-3-8.7Zm-.65 5.09.85-2.52c.17-.53.31-1.06.44-1.58.13.51.26 1 .45 1.59l.85 2.51Zm5.35.55a3.17 3.17 0 0 1 3.35-3.32 3.68 3.68 0 0 1 1.57.33l-.26.87a2.67 2.67 0 0 0-1.31-.29 2.17 2.17 0 0 0-2.21 2.36 2.14 2.14 0 0 0 2.17 2.34 3.25 3.25 0 0 0 1.39-.31l.2.85a4.31 4.31 0 0 1-1.8.36 3 3 0 0 1-3.1-3.15Zm8.54 3.19a3 3 0 0 1-3.1-3.19A3.17 3.17 0 0 1 92 14.8a3.68 3.68 0 0 1 1.57.33l-.26.87a2.67 2.67 0 0 0-1.31-.29 2.17 2.17 0 0 0-2.21 2.36A2.14 2.14 0 0 0 92 20.41a3.25 3.25 0 0 0 1.39-.31l.2.85a4.31 4.31 0 0 1-1.83.36Zm5.56-5.45a1.59 1.59 0 0 0-1.52 1.46 2.89 2.89 0 0 0 0 .53v3.33h-1.17v-4.3c0-.73 0-1.37-.06-1.95h1v1.23a1.86 1.86 0 0 1 1.72-1.37 1.15 1.15 0 0 1 .33 0v1.15a1.51 1.51 0 0 0-.3-.04Zm3.75 5.45a5 5 0 0 0 2.08-.39l-.19-.81a4.15 4.15 0 0 1-1.73.32 2 2 0 0 1-2.14-2.17h4.38a4.61 4.61 0 0 0 0-.53c0-1.15-.54-2.94-2.58-2.94-1.82 0-2.93 1.48-2.93 3.37a2.9 2.9 0 0 0 3.11 3.19Zm-.23-5.71a1.61 1.61 0 0 1 1.57 1.85H99.1a1.88 1.88 0 0 1 1.74-1.81ZM110 12h-1.13v3.74a2.06 2.06 0 0 0-1.88-1c-1.52 0-2.81 1.28-2.8 3.36 0 1.89 1.16 3.17 2.67 3.17A2.32 2.32 0 0 0 109 20.1v1.08h1c0-.43-.06-1.06-.06-1.61Zm-1.13 6.55a1.89 1.89 0 0 1 0 .49 1.72 1.72 0 0 1-1.67 1.36c-1.22 0-1.84-1.05-1.84-2.31s.7-2.42 1.87-2.42a1.67 1.67 0 0 1 1.63 1.33 1.91 1.91 0 0 1 0 .48Zm2.76-3.63h1.13v6.25h-1.13Zm1.26-1.75a.7.7 0 0 1-1.4 0 .69.69 0 0 1 .7-.71.67.67 0 0 1 .74.72Zm2.86 1.75h1.63v.87h-1.63v3.37c0 .77.22 1.21.85 1.21a2.44 2.44 0 0 0 .66-.08v.85a2.73 2.73 0 0 1-1 .16 1.58 1.58 0 0 1-1.23-.48 2.31 2.31 0 0 1-.44-1.62v-3.4h-1v-.87h1v-1.5l1.11-.29Zm5-.14c-1.81 0-2.92 1.48-2.92 3.37a2.9 2.9 0 0 0 3.17 3.16 5 5 0 0 0 2.08-.39l-.19-.81a4.15 4.15 0 0 1-1.73.32 2 2 0 0 1-2.16-2.17h4.38a3.07 3.07 0 0 0 0-.53c.03-1.15-.51-2.94-2.55-2.94ZM119 17.45a1.89 1.89 0 0 1 1.74-1.85 1.63 1.63 0 0 1 1.58 1.85Zm11 2.12V12h-1.14v3.74a2.08 2.08 0 0 0-1.88-1c-1.53 0-2.82 1.28-2.8 3.36 0 1.89 1.16 3.17 2.67 3.17a2.32 2.32 0 0 0 2.12-1.22v1.08h1c.03-.38.03-1.01.03-1.56Zm-1.14-1a1.89 1.89 0 0 1-.05.49 1.71 1.71 0 0 1-1.66 1.36c-1.23 0-1.85-1.05-1.85-2.31s.7-2.42 1.87-2.42a1.67 1.67 0 0 1 1.59 1.31 1.91 1.91 0 0 1 .05.48Zm-50.34 7.1-3 8.7h1.16l.91-2.73h3.08l.92 2.73h1.2l-3-8.7Zm-.65 5.09.85-2.52c.17-.53.31-1.06.44-1.57.13.5.26 1 .45 1.58l.85 2.51ZM88 29.07A2.06 2.06 0 0 0 86 28c-1.43 0-2.81 1.2-2.81 3.32a2.79 2.79 0 0 0 2.65 3.05 2.24 2.24 0 0 0 2-1.05V34c0 1.57-.85 2.18-2 2.18a3.5 3.5 0 0 1-1.84-.49l-.28.87a4.07 4.07 0 0 0 2.07.51 3.28 3.28 0 0 0 2.27-.75 3.58 3.58 0 0 0 .94-2.85v-3.63c0-.76 0-1.26.05-1.71h-1Zm-.13 2.64a1.81 1.81 0 0 1-.09.61 1.66 1.66 0 0 1-1.57 1.16c-1.23 0-1.85-1-1.85-2.24 0-1.45.78-2.37 1.86-2.37a1.65 1.65 0 0 1 1.59 1.2 1.73 1.73 0 0 1 .06.52ZM93.09 28c-1.82 0-2.93 1.49-2.93 3.37a2.9 2.9 0 0 0 3.07 3.15 5.08 5.08 0 0 0 2.08-.38l-.2-.82a4.06 4.06 0 0 1-1.72.32 2 2 0 0 1-2.14-2.16h4.38a5 5 0 0 0 0-.53c.04-1.17-.5-2.95-2.54-2.95Zm-1.83 2.66A1.87 1.87 0 0 1 93 28.8a1.6 1.6 0 0 1 1.57 1.84Zm10.87 0v3.73H101v-3.6c0-1-.37-1.84-1.44-1.84A1.59 1.59 0 0 0 98 30.09a1.64 1.64 0 0 0-.08.53v3.75h-1.1v-6.24h1l.07 1A2.28 2.28 0 0 1 99.92 28c.87 0 2.21.5 2.21 2.64Zm2.9-2.51h1.62V29H105v3.37c0 .77.22 1.21.85 1.21a3.06 3.06 0 0 0 .66-.07v.85a2.82 2.82 0 0 1-1 .15 1.55 1.55 0 0 1-1.22-.47 2.35 2.35 0 0 1-.44-1.63V29h-1v-.86h1v-1.5l1.11-.3Z" fill="#006890" fill-rule="evenodd"/></svg>