<svg data-name="Layer 1" xmlns="http://www.w3.org/2000/svg" viewBox="0 0 40 40"><path d="M19.9 0A19.89 19.89 0 1 1 5.83 5.82 19.88 19.88 0 0 1 19.9 0Z" fill="#a6acb1"/><path d="M19.89 9c-3 0-3.34 0-4.51.06a8.24 8.24 0 0 0-2.66.51 5.37 5.37 0 0 0-1.93 1.26 5.23 5.23 0 0 0-1.26 1.94A7.73 7.73 0 0 0 9 15.39v9.01a7.73 7.73 0 0 0 .51 2.66A5.23 5.23 0 0 0 10.79 29a5.37 5.37 0 0 0 1.93 1.26 8.24 8.24 0 0 0 2.66.51c1.17.05 1.54.06 4.51.06s3.34 0 4.51-.06a8.17 8.17 0 0 0 2.65-.51A5.49 5.49 0 0 0 29 29a5.36 5.36 0 0 0 1.26-1.94 8 8 0 0 0 .51-2.66c0-1.16.06-1.54.06-4.51s0-3.34-.06-4.5a8 8 0 0 0-.51-2.66A5.36 5.36 0 0 0 29 10.79a5.49 5.49 0 0 0-1.94-1.26A8.17 8.17 0 0 0 24.4 9h-4.51Zm0 2c2.92 0 3.26 0 4.42.06a6.12 6.12 0 0 1 2 .38 3.39 3.39 0 0 1 1.26.82 3.26 3.26 0 0 1 .81 1.25 6.13 6.13 0 0 1 .38 2c.05 1.15.06 1.49.06 4.41s0 3.27-.06 4.42a6 6 0 0 1-.38 2 3.22 3.22 0 0 1-.81 1.26 3.39 3.39 0 0 1-1.26.82 6.12 6.12 0 0 1-2 .38c-1.16.05-1.5.06-4.42.06s-3.27 0-4.42-.06a6 6 0 0 1-2-.38 3.32 3.32 0 0 1-1.26-.82 3.36 3.36 0 0 1-.82-1.26 5.82 5.82 0 0 1-.37-2c-.06-1.15-.07-1.5-.07-4.42s0-3.26.07-4.41a5.94 5.94 0 0 1 .37-2 3.4 3.4 0 0 1 .82-1.25 3.32 3.32 0 0 1 1.26-.82 6 6 0 0 1 2-.38c1.15-.12 1.53-.13 4.42-.13ZM27 14.08a1.31 1.31 0 1 1-1.31-1.31A1.32 1.32 0 0 1 27 14.08Zm-12.71 5.83a5.62 5.62 0 1 1 5.62 5.61 5.62 5.62 0 0 1-5.62-5.61Zm2 0a3.65 3.65 0 1 0 3.65-3.65 3.64 3.64 0 0 0-3.68 3.65Z" fill="#fff" fill-rule="evenodd"/></svg>