<svg xmlns="http://www.w3.org/2000/svg" width="20" height="20" viewBox="0 0 24 24">
  <path xmlns="http://www.w3.org/2000/svg" fill="#ffffff" d="M15.246 17c-.927 3.701-2.547 6-3.246 7-.699-1-2.32-3.298-3.246-7h6.492zm7.664 0a12.027 12.027 0 0 1-8.386 6.733A21.292 21.292 0 0 0 17.301 17h5.609zM1.09 17h5.609a21.302 21.302 0 0 0 2.777 6.733A12.027 12.027 0 0 1 1.09 17zm14.55-2H8.36a20.798 20.798 0 0 1 0-6h7.281a20.905 20.905 0 0 1-.001 6zm-9.299 0H.379C.131 14.042 0 13.036 0 12s.131-2.041.379-3h5.962a22.912 22.912 0 0 0 0 6zm17.28 0h-5.963c.265-1.988.265-4.012.001-6h5.962c.247.959.379 1.964.379 3s-.132 2.042-.379 3zm-8.375-8H8.754C9.679 3.298 11.3 1 12 0c1.194 1.708 2.444 3.799 3.246 7zm-8.548-.001H1.089A12.036 12.036 0 0 1 9.476.266c-1.237 1.94-2.214 4.237-2.778 6.733zm16.212 0h-5.609c-.557-2.462-1.513-4.75-2.778-6.733a12.034 12.034 0 0 1 8.387 6.733z"/>
</svg>
