<svg width="46" height="28" viewBox="0 0 46 28" fill="none" xmlns="http://www.w3.org/2000/svg">
<path d="M28.7773 2.99316H16.5273V25.0068H28.7773V2.99316Z" fill="#FF5F00"/>
<path d="M17.3044 14C17.3025 11.8799 17.7829 9.78721 18.7093 7.88026C19.6357 5.97331 20.9838 4.30212 22.6516 2.99321C20.5863 1.36984 18.106 0.360297 15.494 0.0799579C12.8821 -0.200382 10.244 0.259786 7.88128 1.40789C5.51853 2.55599 3.52646 4.34569 2.13276 6.57242C0.739074 8.79916 0 11.3731 0 14C0 16.6269 0.739074 19.2008 2.13276 21.4276C3.52646 23.6543 5.51853 25.444 7.88128 26.5921C10.244 27.7402 12.8821 28.2004 15.494 27.92C18.106 27.6397 20.5863 26.6302 22.6516 25.0068C20.9838 23.6979 19.6357 22.0267 18.7093 20.1197C17.7829 18.2128 17.3025 16.1201 17.3044 14Z" fill="#EB001B"/>
<path d="M45.3033 14C45.3034 16.6269 44.5644 19.2008 43.1707 21.4275C41.7771 23.6543 39.7851 25.444 37.4224 26.5921C35.0597 27.7402 32.4217 28.2004 29.8098 27.92C27.1979 27.6397 24.7176 26.6302 22.6523 25.0068C24.3186 23.6966 25.6657 22.0251 26.592 20.1184C27.5182 18.2118 27.9995 16.1197 27.9995 14C27.9995 11.8803 27.5182 9.7882 26.592 7.88155C25.6657 5.9749 24.3186 4.30344 22.6523 2.9932C24.7176 1.36984 27.1979 0.36029 29.8098 0.0799542C32.4217 -0.200382 35.0597 0.259806 37.4224 1.40792C39.7851 2.55603 41.7771 4.34573 43.1707 6.57247C44.5644 8.7992 45.3034 11.3731 45.3033 14Z" fill="#F79E1B"/>
<path d="M43.9686 22.6752V22.2245H44.1503V22.1327H43.6875V22.2245H43.8693V22.6752H43.9686ZM44.8671 22.6752V22.1318H44.7253L44.5621 22.5056L44.3989 22.1318H44.2569V22.6752H44.3571V22.2653L44.5101 22.6187H44.614L44.767 22.2644V22.6752H44.8671Z" fill="#F79E1B"/>
</svg>
