<svg xmlns="http://www.w3.org/2000/svg" width="24" height="24" viewBox="0 0 24 24">
  <path xmlns="http://www.w3.org/2000/svg" fill="#ffffff" d="M7.5 9A1.5 1.5 0 1 1 6 7.5 1.5 1.5 0 0 1 7.5 9Zm-.3 2.2a2.57 2.57 0 0 1-1.2.3 2.5 2.5 0 1 1 2-.95L10.45 13a2.49 2.49 0 0 1 3.1 0L16 10.55a2.5 2.5 0 1 1 2 .95 2.57 2.57 0 0 1-1.2-.3l-2.6 2.6a2.57 2.57 0 0 1 .3 1.2 2.5 2.5 0 0 1-5 0 2.57 2.57 0 0 1 .3-1.2Zm10.8-.7A1.5 1.5 0 1 0 16.5 9a1.5 1.5 0 0 0 1.5 1.5ZM13.5 15a1.5 1.5 0 1 1-1.5-1.5 1.5 1.5 0 0 1 1.5 1.5Z"/>
</svg>
