<svg width="126" height="36" xmlns="http://www.w3.org/2000/svg" viewBox="0 0 126 36"><path d="M76 11.47v-.13h1v.57a1.39 1.39 0 0 1 1.17-.68 1.07 1.07 0 0 1 .25 0h.09v1h-.4a1 1 0 0 0-1 .95 2.05 2.05 0 0 0 0 .37v2.55H76v-4.63Zm-1 4.5v-4.63h-1.16v2.88a1.08 1.08 0 0 1-.06.38 1.06 1.06 0 0 1-1 .68c-.59 0-.88-.44-.88-1.33v-2.61h-1v2.76c0 1.9 1.16 2.1 1.66 2.1a1.82 1.82 0 0 0 1.4-.63v.53h1Zm-3 4.6a1.79 1.79 0 0 0-1.4.63v-.53h-1v4.77h1.06v-2.85a1.13 1.13 0 0 1 0-.34 1.06 1.06 0 0 1 1-.76c.75 0 .91.66.91 1.22v2.73h1v-2.82c.04-1.95-1.37-2.05-1.65-2.05Zm-1.69-4.68L70 15l-.13.06a2.12 2.12 0 0 1-1 .21 1.42 1.42 0 0 1-1.43-1.57A1.44 1.44 0 0 1 69 12.13a1.84 1.84 0 0 1 .88.2l.13.07.26-.86h-.09a2.57 2.57 0 0 0-1.18-.31 2.42 2.42 0 0 0-2.52 2.54 2.26 2.26 0 0 0 2.32 2.43 3.22 3.22 0 0 0 1.34-.27Zm-1.74 9.41v.14h-1l-.01-.44a1.8 1.8 0 0 1-1.3.53 1.4 1.4 0 0 1-1.49-1.42 1.54 1.54 0 0 1 .44-1.11 3.13 3.13 0 0 1 2.25-.69 1 1 0 0 0-.24-.68.88.88 0 0 0-.66-.22 2 2 0 0 0-1.1.32l-.14.09-.26-.8.08-.05a3.07 3.07 0 0 1 1.54-.41c1.2 0 1.83.69 1.83 2v1.69a8.16 8.16 0 0 0 .06 1.05Zm-1.09-2.17a2.06 2.06 0 0 0-1.43.38.67.67 0 0 0-.21.52.6.6 0 0 0 .64.66 1 1 0 0 0 1-.67.53.53 0 0 0 0-.23ZM59.61 12.3c-.88-.35-1.16-.61-1.16-1.1s.32-.82 1-.82a2.09 2.09 0 0 1 1.1.28l.13.08.32-.91v-.05a3 3 0 0 0-1.43-.32 1.91 1.91 0 0 0-2.13 1.83c0 .86.57 1.48 1.73 1.91.79.3 1.09.61 1.09 1.13s-.45.95-1.18.95a2.6 2.6 0 0 1-1.37-.39l-.13-.09-.29.92.08.06a3.44 3.44 0 0 0 1.63.42c1.69 0 2.29-1 2.29-1.94s-.51-1.49-1.68-1.96Zm0 9.33c-.88-.34-1.16-.61-1.16-1.1s.32-.81 1-.81a2.16 2.16 0 0 1 1.11.28l.12.08.31-.91.01-.05a3 3 0 0 0-1.43-.32 1.91 1.91 0 0 0-2.13 1.83c0 .86.57 1.48 1.73 1.91.79.3 1.09.6 1.09 1.12s-.45.95-1.18.95a2.55 2.55 0 0 1-1.37-.39l-.13-.08-.29.92.08.05a3.3 3.3 0 0 0 1.65.43c1.69 0 2.29-1.05 2.29-1.94s-.53-1.49-1.7-1.97Zm3.68-2.08-1 .33v.79h-.69v.88h.69v2.34a1.85 1.85 0 0 0 .35 1.27 1.24 1.24 0 0 0 1 .38 2.26 2.26 0 0 0 .77-.12h.08v-.87h-.15a1.25 1.25 0 0 1-.44.06c-.25 0-.48-.1-.48-.76v-2.3h1.16v-.88h-1.29Zm-1.46-5.76a2.32 2.32 0 0 1 2.23-2.57 2 2 0 0 1 2 2.26 2.37 2.37 0 0 1 0 .41v.1h-3.2a1.3 1.3 0 0 0 1.4 1.32 2.88 2.88 0 0 0 1.2-.21l.13-.05.2.81h-.09a3.67 3.67 0 0 1-1.55.31 2.22 2.22 0 0 1-2.32-2.38Zm1.06-.64H65a1.34 1.34 0 0 0-.32-.83.87.87 0 0 0-.67-.26 1.19 1.19 0 0 0-1.12 1.09Zm19.55-2.94-1 .33v.8h-.69v.87h.69v2.34a1.91 1.91 0 0 0 .35 1.27 1.25 1.25 0 0 0 1 .39 2.39 2.39 0 0 0 .76-.12h.09v-.88l-.15.05a1.58 1.58 0 0 1-.43 0c-.26 0-.49-.09-.49-.76v-2.29h1.03v-.87h-1.16Zm18.76 9.51a2.64 2.64 0 0 1 1.18.25l.13.07.28-.9-.09-.05a3.39 3.39 0 0 0-1.54-.29 3.22 3.22 0 0 0-3.37 3.43 3.05 3.05 0 0 0 3.21 3.31 4.12 4.12 0 0 0 1.7-.31h.08l-.21-.9-.13.07a3.23 3.23 0 0 1-1.27.25 2.15 2.15 0 0 1-2.26-2.41 2.2 2.2 0 0 1 2.29-2.52Zm19.65 1.75a1.9 1.9 0 0 1 .88.2l.14.07.25-.86-.09-.05a2.57 2.57 0 0 0-1.18-.26 2.42 2.42 0 0 0-2.52 2.53 2.26 2.26 0 0 0 2.34 2.44 3.3 3.3 0 0 0 1.34-.27h.09l-.2-.86-.13.06a2.23 2.23 0 0 1-1 .21 1.43 1.43 0 0 1-1.43-1.57 1.44 1.44 0 0 1 1.51-1.64Zm-5-.9a1.8 1.8 0 0 0-1.4.63v-.53h-1v4.77h1.06v-2.85a1.23 1.23 0 0 1 0-.35 1.05 1.05 0 0 1 1-.75c.76 0 .92.66.92 1.22v2.73h1v-2.82c.14-1.95-1.27-2.05-1.56-2.05Zm-37 4.74v.13h-1v-.55a1.8 1.8 0 0 1-1.43.65 2.18 2.18 0 0 1-2-2.42 2.78 2.78 0 0 1 .7-1.95 2 2 0 0 1 1.42-.6 1.74 1.74 0 0 1 1.25.47v-2.48h1.01v5.59c0 .52.01.9.03 1.16Zm-1.09-2.67a1.55 1.55 0 0 0 0-.33 1.09 1.09 0 0 0-1.06-.85c-.73 0-1.22.65-1.22 1.62 0 .72.32 1.55 1.21 1.55a1.1 1.1 0 0 0 1.07-.88 1.55 1.55 0 0 0 0-.33Zm34.68 1.45v-3.42h-1.06v2.89a1 1 0 0 1-1 1.05c-.59 0-.87-.43-.87-1.32v-2.62h-1.06v2.77c0 1.9 1.16 2.1 1.66 2.1a1.78 1.78 0 0 0 1.4-.63v.53h1v-.13c-.08-.31-.09-.69-.09-1.22ZM125 18.56v6.88h1v-6.88Zm-2.17 6.88h1.06v-4.77h-1.06Zm.53-6.65a.62.62 0 0 0-.64.64.63.63 0 0 0 .63.66.64.64 0 0 0 .65-.66.62.62 0 0 0-.69-.64ZM107.65 23a2.33 2.33 0 0 1-2.33 2.53 2.25 2.25 0 0 1-2.27-2.44 2.33 2.33 0 0 1 2.33-2.53 2.26 2.26 0 0 1 2.27 2.44Zm-1.07 0c0-.56-.26-1.61-1.23-1.61s-1.24.82-1.24 1.64.51 1.61 1.22 1.61c.72.04 1.25-.64 1.25-1.64ZM80.11 11.34h-1v4.76h1Zm5.71 4.5a.33.33 0 0 1 0 .12 2.64 2.64 0 0 1-.66.88 1.69 1.69 0 0 1-.66.37h-.12l.27.91h.11a2.34 2.34 0 0 0 1.05-.55 7 7 0 0 0 1.57-2.89l1.28-3.38h-1.17l-.92 2.73-.18.59a5.44 5.44 0 0 0-.19-.57l-1-2.75h-1.15l1.72 4.35a.4.4 0 0 1 .05.19Zm-6.25-5.09a.64.64 0 0 0 .64-.66.63.63 0 0 0-.64-.64.65.65 0 0 0 0 1.3Zm3.79 14.55v.14h-1l-.01-.44a1.84 1.84 0 0 1-1.31.53 1.4 1.4 0 0 1-1.49-1.42A1.5 1.5 0 0 1 80 23a3.09 3.09 0 0 1 2.25-.7 1 1 0 0 0-.24-.68.88.88 0 0 0-.66-.22 2 2 0 0 0-1.1.32l-.13.09-.27-.8.08-.05a3.07 3.07 0 0 1 1.54-.41c1.2 0 1.83.69 1.83 2v1.69a6.21 6.21 0 0 0 .06 1.06Zm-1.1-2.17a2.06 2.06 0 0 0-1.43.38.67.67 0 0 0-.21.52.6.6 0 0 0 .64.66 1 1 0 0 0 1-.67.85.85 0 0 0 0-.23Zm4.21-2.56a1.41 1.41 0 0 0-1.18.68v-.58h-1v4.77h1.06v-2.53a2.12 2.12 0 0 1 0-.37 1 1 0 0 1 1-.95H86.76v-1h-.09a1.07 1.07 0 0 0-.2-.02Zm7.65 2c-.59-.23-.76-.38-.76-.66s.25-.5.62-.5a1.74 1.74 0 0 1 .86.25l.12.08.28-.83-.08-.05a2.19 2.19 0 0 0-1.16-.3A1.52 1.52 0 0 0 92.34 22c0 .62.43 1.08 1.27 1.39.62.24.74.44.74.72s-.27.55-.74.55a2.08 2.08 0 0 1-1-.3l-.13-.08-.28.86.08.05a2.7 2.7 0 0 0 1.33.33c1.08 0 1.78-.58 1.78-1.48-.01-.68-.39-1.14-1.27-1.46Zm-2.67 2.73v.14h-1v-.55a1.77 1.77 0 0 1-1.43.65 2.17 2.17 0 0 1-2-2.42 2.7 2.7 0 0 1 .7-1.95 2 2 0 0 1 1.41-.6 1.7 1.7 0 0 1 1.25.47v-2.48h1.06v5.59c-.02.28-.02.85.01 1.15Zm-1.09-2.66a1.55 1.55 0 0 0 0-.33 1.08 1.08 0 0 0-1-.85c-.74 0-1.22.63-1.22 1.62 0 .72.31 1.55 1.19 1.55a1.11 1.11 0 0 0 1.08-.88 1.55 1.55 0 0 0 0-.33Zm-75.95-8.45h-.66V18h.61a3.84 3.84 0 0 0 2.08-.47 1.7 1.7 0 0 0 .72-1.51c0-1.21-.92-1.83-2.75-1.83ZM43.84 0 54 22.72 12.18 36 0 2.49ZM22.37 16a4 4 0 0 0-2-3.7 10.9 10.9 0 0 0-5.6-1.22h-6.4v14.39h5.43v-4.32h.85a14.63 14.63 0 0 0 3.16-.32 7.67 7.67 0 0 0 2.43-1 4.58 4.58 0 0 0 1.57-1.62 4.33 4.33 0 0 0 .56-2.21Zm15.18 9v-3.6a14.31 14.31 0 0 1-2 .61 9.29 9.29 0 0 1-1.9.2 6 6 0 0 1-1.77-.21 4 4 0 0 1-1.43-.74 3.41 3.41 0 0 1-1-1.23 3.86 3.86 0 0 1-.36-1.72 3.74 3.74 0 0 1 1.15-2.92 4.38 4.38 0 0 1 3-1 7.43 7.43 0 0 1 2.14.3 9 9 0 0 1 1.81.77v-3.92a7.72 7.72 0 0 0-1.57-.47 13.79 13.79 0 0 0-2.9-.22 12.75 12.75 0 0 0-3.76.53A9 9 0 0 0 26 12.89a6.81 6.81 0 0 0-1.92 2.36 6.69 6.69 0 0 0-.68 3 7.15 7.15 0 0 0 .64 3.07 6.28 6.28 0 0 0 1.86 2.34 8.71 8.71 0 0 0 3 1.47 14.13 14.13 0 0 0 4 .53 15.2 15.2 0 0 0 2.84-.24 13.8 13.8 0 0 0 1.81-.42Zm7.68-13.93h-5.46v14.4h5.46Zm-.37-6.82a3.76 3.76 0 0 0-4.71 0 2.91 2.91 0 0 0-.95 2.31 2.87 2.87 0 0 0 .95 2.28 3.76 3.76 0 0 0 4.71 0 2.84 2.84 0 0 0 1-2.28 2.88 2.88 0 0 0-1-2.3Z" fill="#006a71"/></svg>