<svg xmlns="http://www.w3.org/2000/svg" xmlns:xlink="http://www.w3.org/1999/xlink" viewBox="0 0 136.6 137.8"><defs><style>.cls-1{fill:none;}.cls-2{clip-path:url(#clip-path);}.cls-3{fill:url(#linear-gradient);}.cls-4{clip-path:url(#clip-path-2);}.cls-5{fill:url(#linear-gradient-2);}.cls-6{clip-path:url(#clip-path-3);}.cls-7{fill:url(#linear-gradient-3);}.cls-8{clip-path:url(#clip-path-4);}.cls-9{fill:url(#linear-gradient-4);}.cls-10{clip-path:url(#clip-path-5);}.cls-11{fill:url(#linear-gradient-5);}.cls-12{clip-path:url(#clip-path-6);}.cls-13{fill:url(#linear-gradient-6);}.cls-14{clip-path:url(#clip-path-7);}.cls-15{fill:url(#linear-gradient-7);}.cls-16{clip-path:url(#clip-path-8);}.cls-17{fill:url(#linear-gradient-8);}.cls-18{clip-path:url(#clip-path-9);}.cls-19{fill:url(#linear-gradient-9);}.cls-20{clip-path:url(#clip-path-10);}.cls-21{fill:url(#linear-gradient-10);}.cls-22{clip-path:url(#clip-path-11);}.cls-23{fill:url(#linear-gradient-11);}.cls-24{clip-path:url(#clip-path-12);}.cls-25{fill:url(#linear-gradient-12);}.cls-26{clip-path:url(#clip-path-13);}.cls-27{fill:url(#linear-gradient-13);}.cls-28{clip-path:url(#clip-path-14);}.cls-29{fill:url(#linear-gradient-14);}.cls-30{clip-path:url(#clip-path-15);}.cls-31{fill:url(#linear-gradient-15);}.cls-32{clip-path:url(#clip-path-16);}.cls-33{fill:url(#linear-gradient-16);}.cls-34{clip-path:url(#clip-path-17);}.cls-35{fill:url(#linear-gradient-17);}.cls-36{clip-path:url(#clip-path-18);}.cls-37{fill:url(#linear-gradient-18);}.cls-38{clip-path:url(#clip-path-19);}.cls-39{fill:url(#linear-gradient-19);}.cls-40{clip-path:url(#clip-path-20);}.cls-41{fill:url(#linear-gradient-20);}.cls-42{clip-path:url(#clip-path-21);}.cls-43{fill:url(#linear-gradient-21);}.cls-44{clip-path:url(#clip-path-22);}.cls-45{fill:url(#linear-gradient-22);}.cls-46{clip-path:url(#clip-path-23);}.cls-47{fill:url(#linear-gradient-23);}.cls-48{clip-path:url(#clip-path-24);}.cls-49{fill:url(#linear-gradient-24);}.cls-50{clip-path:url(#clip-path-25);}.cls-51{fill:url(#linear-gradient-25);}.cls-52{clip-path:url(#clip-path-26);}.cls-53{fill:url(#linear-gradient-26);}.cls-54{clip-path:url(#clip-path-27);}.cls-55{fill:url(#linear-gradient-27);}.cls-56{clip-path:url(#clip-path-28);}.cls-57{fill:url(#linear-gradient-28);}.cls-58{clip-path:url(#clip-path-29);}.cls-59{opacity:0.7;}.cls-60{opacity:0.8;}.cls-61{opacity:0;}.cls-62{fill:#fff;}.cls-63{clip-path:url(#clip-path-32);}.cls-64{opacity:0.03;}.cls-65{fill:#faf9fc;}.cls-66{clip-path:url(#clip-path-33);}.cls-67{opacity:0.06;}.cls-68{fill:#f5f2fa;}.cls-69{clip-path:url(#clip-path-34);}.cls-70{opacity:0.1;}.cls-71{fill:#efecf7;}.cls-72{clip-path:url(#clip-path-35);}.cls-73{opacity:0.13;}.cls-74{fill:#eae6f4;}.cls-75{clip-path:url(#clip-path-36);}.cls-76{opacity:0.16;}.cls-77{fill:#e5dff1;}.cls-78{clip-path:url(#clip-path-37);}.cls-79{opacity:0.19;}.cls-80{fill:#e0d9ef;}.cls-81{clip-path:url(#clip-path-38);}.cls-82{opacity:0.23;}.cls-83{fill:#dbd3ec;}.cls-84{clip-path:url(#clip-path-39);}.cls-85{opacity:0.26;}.cls-86{fill:#d5cde9;}.cls-87{clip-path:url(#clip-path-40);}.cls-88{opacity:0.29;}.cls-89{fill:#d0c6e7;}.cls-90{clip-path:url(#clip-path-41);}.cls-91{opacity:0.32;}.cls-92{fill:#cbc0e4;}.cls-93{clip-path:url(#clip-path-42);}.cls-94{opacity:0.35;}.cls-95{fill:#c6b9e1;}.cls-96{clip-path:url(#clip-path-43);}.cls-97{opacity:0.39;}.cls-98{fill:#c0b3de;}.cls-99{clip-path:url(#clip-path-44);}.cls-100{opacity:0.42;}.cls-101{fill:#bbaddc;}.cls-102{clip-path:url(#clip-path-45);}.cls-103{opacity:0.45;}.cls-104{fill:#b6a7d9;}.cls-105{clip-path:url(#clip-path-46);}.cls-106{opacity:0.48;}.cls-107{fill:#b1a0d6;}.cls-108{clip-path:url(#clip-path-47);}.cls-109{opacity:0.52;}.cls-110{fill:#ab9ad4;}.cls-111{clip-path:url(#clip-path-48);}.cls-112{opacity:0.55;}.cls-113{fill:#a693d1;}.cls-114{clip-path:url(#clip-path-49);}.cls-115{opacity:0.58;}.cls-116{fill:#a18dce;}.cls-117{clip-path:url(#clip-path-50);}.cls-118{opacity:0.61;}.cls-119{fill:#9c87cb;}.cls-120{clip-path:url(#clip-path-51);}.cls-121{opacity:0.65;}.cls-122{fill:#9681c9;}.cls-123{clip-path:url(#clip-path-52);}.cls-124{opacity:0.68;}.cls-125{fill:#917ac6;}.cls-126{clip-path:url(#clip-path-53);}.cls-127{opacity:0.71;}.cls-128{fill:#8c74c3;}.cls-129{clip-path:url(#clip-path-54);}.cls-130{opacity:0.74;}.cls-131{fill:#876ec1;}.cls-132{clip-path:url(#clip-path-55);}.cls-133{opacity:0.77;}.cls-134{fill:#8267be;}.cls-135{clip-path:url(#clip-path-56);}.cls-136{opacity:0.81;}.cls-137{fill:#7c61bb;}.cls-138{clip-path:url(#clip-path-57);}.cls-139{opacity:0.84;}.cls-140{fill:#775bb9;}.cls-141{clip-path:url(#clip-path-58);}.cls-142{opacity:0.87;}.cls-143{fill:#7254b6;}.cls-144{clip-path:url(#clip-path-59);}.cls-145{opacity:0.9;}.cls-146{fill:#6d4eb3;}.cls-147{clip-path:url(#clip-path-60);}.cls-148{opacity:0.94;}.cls-149{fill:#6848b0;}.cls-150{clip-path:url(#clip-path-61);}.cls-151{opacity:0.97;}.cls-152{fill:#6241ae;}.cls-153{clip-path:url(#clip-path-62);}.cls-154{fill:#5d3bab;}.cls-155{clip-path:url(#clip-path-63);}.cls-156{fill:url(#linear-gradient-29);}.cls-157{clip-path:url(#clip-path-64);}.cls-158{fill:url(#linear-gradient-30);}.cls-159{clip-path:url(#clip-path-65);}.cls-160{fill:url(#linear-gradient-31);}.cls-161{clip-path:url(#clip-path-66);}.cls-162{fill:url(#linear-gradient-32);}.cls-163{clip-path:url(#clip-path-67);}.cls-164{fill:url(#linear-gradient-33);}</style><clipPath id="clip-path"><path class="cls-1" d="M.15,91.54v0h0s0,0,0,.05h0s0,.1,0,.15h0a0,0,0,0,0,0,0h0a.06.06,0,0,0,0,0h0c0,.06,0,.12,0,.17h0s0,0,0,0h0a1.58,1.58,0,0,0,.13.26h0v0l0,.07h0l.06.09h0l.08.1h0a.27.27,0,0,0,.07.08h0s0,0,0,0h0l0,0h0L.93,93h0L1,93H1a3.32,3.32,0,0,0,.27.25h0l0,0h0l0,0h0c.14.11.3.26.47.38h0l.06,0h0l.53.39h0l.06,0h0l.62.39H3s0,0,.06,0h0c.2.13.41.25.62.37h0l0,0h0l.07,0h0l.42.23h0l.16.1h0l.34.18h0c.1,0,.2.11.3.15h0a2.26,2.26,0,0,0,.26.14h0L7.62,97h0l.5.26h0l65.81,36c3.93,2.14,6.35,3.62,8.31,4.21h0a7.32,7.32,0,0,0,.94.21h0l-.12-3.91a8.87,8.87,0,0,1-.93-.22h0c-2-.59-4.39-2.07-8.31-4.21h0L8,93.38l-.45-.24h0l-.08,0h0L7,92.87H7l-.12-.07h0l-.41-.2h0L5.32,92h0l-.55-.29h0l0,0h0c-.35-.18-.69-.37-1-.56h0l-.09,0h0L3,90.67h0l-.63-.41h0s0,0,0,0h0l-.55-.39h0l-.06,0h0l-.47-.38h0l0,0h0l-.28-.26h0l0,0h0a.13.13,0,0,0-.09,0h0c-.23,0-.77.33-.58,2.49"/></clipPath><linearGradient id="linear-gradient" x1="1571.53" y1="1259.02" x2="1572.28" y2="1259.02" gradientTransform="matrix(-108.74, 2.89, -2.94, -108.77, 174672.38, 132513.62)" gradientUnits="userSpaceOnUse"><stop offset="0" stop-color="#7162c8"/><stop offset="0.11" stop-color="#7162c8"/><stop offset="1" stop-color="#5d3bab"/></linearGradient><clipPath id="clip-path-2"><path class="cls-1" d="M134.28,103.83l-47.18,29a7.91,7.91,0,0,1-1.14.6h0a4.37,4.37,0,0,1-.57.21h0a2.5,2.5,0,0,1-.39.11h0l-.3.07h0l-.28,0h0l-.28,0h-.3l-.32,0h0l-.46-.05h0l.12,3.91a3.65,3.65,0,0,0,.46.07h.62a2.48,2.48,0,0,1,.27,0h0l.29,0h0l.3-.06h0l.39-.12h0c.18-.06.37-.12.56-.2h0a8.63,8.63,0,0,0,1.15-.61h0l47.17-29c1.17-.72,1.87-1.22,1.84-1.8h0c0-1.31-.07-2.6-.11-3.91h0c0,.57-.67,1.07-1.84,1.78"/></clipPath><linearGradient id="linear-gradient-2" x1="1530.56" y1="1229.86" x2="1531.32" y2="1229.86" gradientTransform="matrix(71.68, -1.9, 1.94, 71.7, -112008.86, -85141.27)" xlink:href="#linear-gradient"/><clipPath id="clip-path-3"><path class="cls-1" d="M.05,90.54v0h0s0,0,0,.06h0s0,.09,0,.15h0v0h0s0,0,0,0h0A1.77,1.77,0,0,0,.16,91h0a.06.06,0,0,0,0,0h0s0,0,0,0h0c0,.08.08.17.13.26h0v0h0l0,.08h0l.06.08h0l.07.11h0a.6.6,0,0,0,.08.08h0s0,0,0,0h0l0,0h0L.83,92h0s0,0,.05.05h0l.27.25h0l0,0h0l0,0h0l.47.39h0l.06,0h0c.17.13.35.26.54.38h0l0,.05h0l.62.39h0l.06,0H3l.62.36h0s0,0,0,0h0l.08,0h0l.42.23h0l.16.09h0l.34.18h0l.3.16H5l.25.13h0L7.53,96h0L8,96.3H8l65.81,36c3.93,2.15,6.35,3.63,8.32,4.23h0a8.76,8.76,0,0,0,.93.21h0L83,132.8a6.7,6.7,0,0,1-.94-.22h0c-2-.6-4.4-2.07-8.31-4.22h0l-65.81-36-.46-.25h0l-.08,0h0l-.44-.23h0l-.12-.07h0a4,4,0,0,1-.41-.21h0L5.22,91h0l-.55-.29h0l0,0h0c-.34-.18-.69-.36-1-.56h0l-.09,0h0c-.22-.13-.44-.25-.66-.39h0l-.65-.4h0s0,0,0,0h0l-.55-.4h0l-.05,0h0l-.48-.39h0s0,0,0,0H1l-.28-.26h0l0,0h0a.16.16,0,0,0-.09,0h0c-.23,0-.77.32-.58,2.49"/></clipPath><linearGradient id="linear-gradient-3" x1="1571.53" y1="1259.02" x2="1572.28" y2="1259.02" gradientTransform="matrix(-108.74, 2.89, -2.94, -108.76, 174671.2, 132511.47)" gradientUnits="userSpaceOnUse"><stop offset="0" stop-color="#766dd4"/><stop offset="0.45" stop-color="#7162c8"/><stop offset="1" stop-color="#7162c8"/></linearGradient><clipPath id="clip-path-4"><path class="cls-1" d="M134.18,102.83,87,131.81a8.55,8.55,0,0,1-1.14.61h0a4.3,4.3,0,0,1-.57.2h0a2.91,2.91,0,0,1-.39.12h0l-.3.06h0l-.29,0h0l-.27,0h-.62L83,132.8h0l.11,3.92.46.05h0l.32,0h.29l.28,0h0l.29,0h0l.29-.05h0c.14,0,.27-.07.4-.12h0l.56-.2h0a11.82,11.82,0,0,0,1.15-.61h0l47.17-29c1.18-.72,1.86-1.22,1.84-1.79h0c0-1.3-.07-2.6-.11-3.92h0c0,.58-.67,1.08-1.84,1.79"/></clipPath><linearGradient id="linear-gradient-4" x1="1580.2" y1="1265.04" x2="1580.95" y2="1265.04" gradientTransform="matrix(-71.67, 1.9, -1.93, -71.68, 115837.26, 87795.74)" gradientUnits="userSpaceOnUse"><stop offset="0" stop-color="#766dd4"/><stop offset="0.77" stop-color="#c397f2"/><stop offset="1" stop-color="#c397f2"/></linearGradient><clipPath id="clip-path-5"><path class="cls-1" d="M48.44,58.38l-47.18,29C-2.87,89.9,4.13,92.75,8,94.85H8l65.81,36c7.49,4.1,9.52,5.77,13.28,3.45h0l47.19-29c3.3-2,2.78-2.29-6.72-7.48h0l-65.81-36c-5.27-2.87-7.8-4.5-10.08-4.5h0a6,6,0,0,0-3.2,1.06"/></clipPath><linearGradient id="linear-gradient-5" x1="1569.37" y1="1246.32" x2="1570.12" y2="1246.32" gradientTransform="matrix(-120.86, -96.05, 95.97, -120.84, 70166.97, 301464.31)" gradientUnits="userSpaceOnUse"><stop offset="0" stop-color="#7162c8"/><stop offset="0.15" stop-color="#7162c8"/><stop offset="1" stop-color="#f5f5ff"/></linearGradient><clipPath id="clip-path-6"><path class="cls-1" d="M132.56,51.91l1.26,52c0,1,1.47.89.88,1.26h0c.19-.11.21.18.25.47h0c0,.3.1.61.39.43h0a2.29,2.29,0,0,0,1.25-1.81h0l-1.31-54Z"/></clipPath><linearGradient id="linear-gradient-6" x1="2016.92" y1="1569.62" x2="2017.67" y2="1569.62" gradientTransform="matrix(-3.87, 0.1, -0.1, -3.87, 8110.81, 5950.47)" xlink:href="#linear-gradient"/><clipPath id="clip-path-7"><path class="cls-1" d="M49,0h-.13a1.2,1.2,0,0,0-.2,0h0l0,0h0l-.1,0h0a.32.32,0,0,0-.09,0h-.09l-.16.09h0s0,0,0,0h0S46.9,1,47,1h0s-.47.73-.43.73h0l.18,0h0l.14,0h0l.15,0h0l.23.08h0l.14,0h0a3.26,3.26,0,0,1,.43.2h0l81.28,44.12c.1.06.21.12.32.2h0l.09.07h0a1.64,1.64,0,0,1,.22.14h0a.47.47,0,0,0,.12.09h0l.19.17h0l.12.1h0l.14.14h0l.24.23h0a.86.86,0,0,0,.13.14h0c0,.05.08.1.12.16h0l.16.18h0L131,48h0a1.88,1.88,0,0,1,.18.24h0a.86.86,0,0,0,.07.1h0c.07.11.14.22.22.33h0a.16.16,0,0,0,0,.07h0l.16.29h0a.41.41,0,0,1,.05.09h0l.17.32h0a.43.43,0,0,0,0,.05h0a2.43,2.43,0,0,1,.16.37h0s0,.07,0,.1h0l.09.26h0a.88.88,0,0,1,.05.15h0c0,.07,0,.15.07.23h0l0,.17h0a1.16,1.16,0,0,1,0,.18h0a2.61,2.61,0,0,1,.06.27h0c0,.09,0,.16,0,.23h0s0,.08,0,.13h0c0,.12,0,.24,0,.37h0l2.72-1.68c0-.13,0-.26,0-.38h0a.37.37,0,0,1,0-.11h0l0-.17h0s0,0,0-.07h0a2.14,2.14,0,0,0-.06-.27h0a.6.6,0,0,0,0-.12h0a.11.11,0,0,0,0-.06h0a1,1,0,0,0,0-.17h0a1.24,1.24,0,0,0,0-.16h0l0-.09h0a.61.61,0,0,0-.05-.12h0a.56.56,0,0,0,0-.12h0a.75.75,0,0,1,0-.16h0a.31.31,0,0,1-.05-.1h0s0,0,0-.06h0l-.12-.29h0v0l0,0h0a1.79,1.79,0,0,0-.12-.24h0a.9.9,0,0,0-.05-.09h0l0-.09h0a.39.39,0,0,1-.06-.11h0l-.13-.21h0l0,0h0l0,0h0a2.11,2.11,0,0,0-.18-.27h0a.08.08,0,0,1,0,0h0l-.07-.09h0a.91.91,0,0,0-.11-.16h0a.27.27,0,0,0-.07-.08h0l-.1-.13h0a.41.41,0,0,0-.05-.09h0l-.09-.09h0a1.83,1.83,0,0,1-.13-.16h0l-.07-.07h0l-.08-.08h0c-.07-.07-.14-.15-.22-.22h0a.23.23,0,0,0-.07-.07h0l-.08-.07h0l-.11-.1h0a1.56,1.56,0,0,0-.2-.16h0l-.11-.09h0l-.22-.16h0l-.1-.06h0a2.14,2.14,0,0,0-.32-.2h0L50.52.43A2.74,2.74,0,0,0,50.1.22h-.05L50,.17h0L49.73.11h0l-.07,0h0a.15.15,0,0,1-.09,0h0l-.12,0h0l-.09,0H49"/></clipPath><linearGradient id="linear-gradient-7" x1="1570.64" y1="1258.03" x2="1571.39" y2="1258.03" gradientTransform="matrix(-116.23, 3.09, -3.14, -116.25, 186633.32, 141426.04)" xlink:href="#linear-gradient"/><clipPath id="clip-path-8"><path class="cls-1" d="M46.23,3l1.26,52A7.34,7.34,0,0,0,51,60.68h0l81.47,44.25c1.87,1,3.34-.23,3.29-2.36h0l-1.25-51.63A7.35,7.35,0,0,0,131,45.26h0L49.53,1A3.05,3.05,0,0,0,48.07.58h0c-1.12,0-1.88.9-1.84,2.42"/></clipPath><linearGradient id="linear-gradient-8" x1="1570.69" y1="1258.15" x2="1571.45" y2="1258.15" gradientTransform="matrix(-115.78, 3.07, -3.13, -115.81, 185924.46, 140923.83)" gradientUnits="userSpaceOnUse"><stop offset="0" stop-color="#cfcfff"/><stop offset="0.45" stop-color="#f5f5ff"/><stop offset="1" stop-color="#f5f5ff"/></linearGradient><clipPath id="clip-path-9"><path class="cls-1" d="M47.9,6.16,49,53.35a6.7,6.7,0,0,0,3.16,5.16h0L130.4,101c1.69.91,3,.11,3-1.82h0L132.25,52a6.7,6.7,0,0,0-3.16-5.16h0L50.9,4.35A2.85,2.85,0,0,0,49.57,4h0c-1,0-1.7.81-1.67,2.2"/></clipPath><linearGradient id="linear-gradient-9" x1="1541.21" y1="1243.67" x2="1541.96" y2="1243.67" gradientTransform="matrix(139.94, 46.77, -46.7, 139.95, -157568.17, -246101.15)" gradientUnits="userSpaceOnUse"><stop offset="0" stop-color="#f25a91"/><stop offset="0.71" stop-color="#5d3bab"/><stop offset="1" stop-color="#5d3bab"/></linearGradient><clipPath id="clip-path-10"><path class="cls-1" d="M47.9,6.15,49,53.34A6.71,6.71,0,0,0,52.2,58.5h0l47.9,26L85.23,23,50.89,4.34A2.84,2.84,0,0,0,49.57,4h0c-1,0-1.7.81-1.67,2.2"/></clipPath><linearGradient id="linear-gradient-10" x1="1581.86" y1="1265.96" x2="1582.61" y2="1265.96" gradientTransform="matrix(-66.76, 1.77, -1.8, -66.77, 107979.87, 81768.54)" xlink:href="#linear-gradient-9"/><clipPath id="clip-path-11"><path class="cls-1" d="M79.82,121a1.15,1.15,0,0,0,0,2.18h0l3.69,2.06a4.18,4.18,0,0,0,3.8-.11h0a1.16,1.16,0,0,0,0-2.19h0l-3.68-2.06a3.78,3.78,0,0,0-1.77-.4h0a3.91,3.91,0,0,0-2,.52"/></clipPath><linearGradient id="linear-gradient-11" x1="1703.36" y1="1352.95" x2="1704.12" y2="1352.95" gradientTransform="matrix(-11.96, 0.32, -0.32, -11.96, 20899.84, 15768.71)" xlink:href="#linear-gradient-4"/><clipPath id="clip-path-12"><path class="cls-1" d="M71.2,116.51a1.16,1.16,0,0,0,0,2.2h0l3.69,2.05a4.21,4.21,0,0,0,3.8-.1h0c1-.64,1-1.62,0-2.2h0l-3.69-2a3.8,3.8,0,0,0-1.78-.41h0a3.9,3.9,0,0,0-2,.51"/></clipPath><linearGradient id="linear-gradient-12" x1="1703.07" y1="1352.78" x2="1703.82" y2="1352.78" gradientTransform="matrix(-11.97, 0.32, -0.32, -11.97, 20895.75, 15768.33)" xlink:href="#linear-gradient-4"/><clipPath id="clip-path-13"><path class="cls-1" d="M36.18,72.76l-8.12,5a1,1,0,0,0,0,1.94h0l7.44,4.07a3.73,3.73,0,0,0,3.35-.1h0l8.12-5a1,1,0,0,0,0-2h0l-7.43-4.06A3.41,3.41,0,0,0,38,72.32h0a3.53,3.53,0,0,0-1.78.44"/></clipPath><linearGradient id="linear-gradient-13" x1="1620.4" y1="1293.63" x2="1621.15" y2="1293.63" gradientTransform="matrix(-27, 0.72, -0.73, -27, 44735.1, 33846.81)" xlink:href="#linear-gradient-4"/><clipPath id="clip-path-14"><path class="cls-1" d="M43,68.74c-1.14.7-1.12,1.78.05,2.41h0l68.72,37.58a4.55,4.55,0,0,0,4.14-.1h0c1.13-.7,1.11-1.77,0-2.4h0L47.11,68.64a4.15,4.15,0,0,0-2-.45h0a4.34,4.34,0,0,0-2.19.55"/></clipPath><linearGradient id="linear-gradient-14" x1="1573.47" y1="1260.24" x2="1574.22" y2="1260.24" gradientTransform="matrix(-97.8, 2.6, -2.64, -97.82, 157330.4, 119279.78)" xlink:href="#linear-gradient-4"/><clipPath id="clip-path-15"><path class="cls-1" d="M21.47,81.5a1.27,1.27,0,0,0,.05,2.4h0l68.73,37.59a4.58,4.58,0,0,0,4.14-.11h0a1.28,1.28,0,0,0,0-2.41h0L25.61,81.38a4.2,4.2,0,0,0-1.94-.44h0a4.28,4.28,0,0,0-2.2.56"/></clipPath><linearGradient id="linear-gradient-15" x1="1573.39" y1="1260.28" x2="1574.15" y2="1260.28" gradientTransform="matrix(-97.8, 2.6, -2.64, -97.82, 157297.34, 119293.35)" xlink:href="#linear-gradient-4"/><clipPath id="clip-path-16"><path class="cls-1" d="M48.42,79.71c-1.13.69-1.12,1.77,0,2.4h0l56.7,30.79a4.58,4.58,0,0,0,4.14-.11h0a1.27,1.27,0,0,0,0-2.4h0L52.55,79.6a4.1,4.1,0,0,0-1.95-.45h0a4.21,4.21,0,0,0-2.18.56"/></clipPath><linearGradient id="linear-gradient-16" x1="1576.93" y1="1262.72" x2="1577.69" y2="1262.72" gradientTransform="matrix(-82.06, 2.18, -2.22, -82.07, 132307.29, 100297.53)" xlink:href="#linear-gradient-4"/><clipPath id="clip-path-17"><path class="cls-1" d="M26.11,91.84a1.27,1.27,0,0,0,.05,2.4h0L66.1,115.89a4.58,4.58,0,0,0,4.14-.11h0c1.13-.7,1.11-1.76,0-2.4h0l-40-21.65a4.08,4.08,0,0,0-1.94-.44h0a4.24,4.24,0,0,0-2.19.55"/></clipPath><linearGradient id="linear-gradient-17" x1="1584.63" y1="1268.33" x2="1585.39" y2="1268.33" gradientTransform="matrix(-60.11, 1.6, -1.62, -60.12, 97385.37, 73832.37)" xlink:href="#linear-gradient-4"/><clipPath id="clip-path-18"><path class="cls-1" d="M41.64,84.56a1.28,1.28,0,0,0,0,2.41h0l56.42,30.7a4.55,4.55,0,0,0,4.14-.11h0a1.27,1.27,0,0,0-.06-2.4h0L45.78,84.46a4.12,4.12,0,0,0-2-.44h0a4.36,4.36,0,0,0-2.19.54"/></clipPath><linearGradient id="linear-gradient-18" x1="1577.01" y1="1262.81" x2="1577.76" y2="1262.81" gradientTransform="matrix(-81.67, 2.17, -2.2, -81.69, 131687.35, 99840.38)" xlink:href="#linear-gradient-4"/><clipPath id="clip-path-19"><path class="cls-1" d="M17,87.07a1.27,1.27,0,0,0,0,2.39h0l3.19,1.74a4.5,4.5,0,0,0,4.12-.11h0a1.26,1.26,0,0,0-.05-2.38h0L21.12,87a4,4,0,0,0-1.93-.44h0a4.2,4.2,0,0,0-2.18.55"/></clipPath><linearGradient id="linear-gradient-19" x1="1702.2" y1="1352.36" x2="1702.96" y2="1352.36" gradientTransform="matrix(-11.92, 0.32, -0.32, -11.92, 20745, 15669.47)" xlink:href="#linear-gradient-4"/><clipPath id="clip-path-20"><path class="cls-1" d="M79.81,120.44c-1,.64-1,1.62,0,2.2h0l3.69,2a4.12,4.12,0,0,0,3.79-.1h0a1.16,1.16,0,0,0,0-2.2h0l-3.68-2a3.83,3.83,0,0,0-1.78-.41h0a4,4,0,0,0-2,.51"/></clipPath><linearGradient id="linear-gradient-20" x1="1703.32" y1="1352.91" x2="1704.07" y2="1352.91" gradientTransform="matrix(-11.96, 0.32, -0.32, -11.97, 20905.04, 15771.93)" gradientUnits="userSpaceOnUse"><stop offset="0" stop-color="#f5f5ff"/><stop offset="0.11" stop-color="#f5f5ff"/><stop offset="1" stop-color="#dadaff"/></linearGradient><clipPath id="clip-path-21"><path class="cls-1" d="M71.18,116a1.16,1.16,0,0,0,0,2.2h0l3.68,2a4.24,4.24,0,0,0,3.8-.09h0c1-.64,1-1.63,0-2.2h0L75,115.85a3.72,3.72,0,0,0-1.79-.4h0a3.92,3.92,0,0,0-2,.5"/></clipPath><linearGradient id="linear-gradient-21" x1="1703.1" y1="1352.78" x2="1703.85" y2="1352.78" gradientTransform="matrix(-11.96, 0.32, -0.32, -11.97, 20892.52, 15765.16)" xlink:href="#linear-gradient-20"/><clipPath id="clip-path-22"><path class="cls-1" d="M36.17,72.2l-8.13,5a1,1,0,0,0,0,1.94h0l7.44,4.07a3.68,3.68,0,0,0,3.34-.09h0l8.12-5a1,1,0,0,0,0-2h0l-7.43-4.06a3.33,3.33,0,0,0-1.57-.35h0a3.52,3.52,0,0,0-1.77.44"/></clipPath><linearGradient id="linear-gradient-22" x1="1620.4" y1="1293.63" x2="1621.16" y2="1293.63" gradientTransform="matrix(-26.99, 0.72, -0.73, -27, 44732.52, 33844.13)" xlink:href="#linear-gradient-20"/><clipPath id="clip-path-23"><path class="cls-1" d="M43,68.19a1.27,1.27,0,0,0,0,2.4h0l68.73,37.59a4.56,4.56,0,0,0,4.13-.11h0c1.13-.69,1.12-1.77,0-2.4h0L47.09,68.08a4.15,4.15,0,0,0-2-.44h0a4.27,4.27,0,0,0-2.19.55"/></clipPath><linearGradient id="linear-gradient-23" x1="1573.47" y1="1260.24" x2="1574.22" y2="1260.24" gradientTransform="matrix(-97.8, 2.6, -2.64, -97.82, 157325.01, 119274.96)" xlink:href="#linear-gradient-20"/><clipPath id="clip-path-24"><path class="cls-1" d="M21.45,80.94a1.27,1.27,0,0,0,.05,2.4h0l68.73,37.59a4.58,4.58,0,0,0,4.14-.11h0c1.13-.7,1.11-1.77-.05-2.4h0L25.59,80.83a4.08,4.08,0,0,0-1.94-.45h0a4.31,4.31,0,0,0-2.2.56"/></clipPath><linearGradient id="linear-gradient-24" x1="1573.39" y1="1260.28" x2="1574.15" y2="1260.28" gradientTransform="matrix(-97.8, 2.6, -2.64, -97.82, 157298.5, 119293.52)" xlink:href="#linear-gradient-20"/><clipPath id="clip-path-25"><path class="cls-1" d="M48.4,79.15a1.27,1.27,0,0,0,.05,2.4h0l56.7,30.79a4.58,4.58,0,0,0,4.14-.11h0c1.13-.7,1.11-1.77-.05-2.39h0L52.54,79a4.15,4.15,0,0,0-1.95-.45h0a4.25,4.25,0,0,0-2.19.56"/></clipPath><linearGradient id="linear-gradient-25" x1="1576.94" y1="1262.72" x2="1577.69" y2="1262.72" gradientTransform="matrix(-82.06, 2.18, -2.22, -82.07, 132305.28, 100295.28)" xlink:href="#linear-gradient-20"/><clipPath id="clip-path-26"><path class="cls-1" d="M26.09,91.28a1.28,1.28,0,0,0,.05,2.41h0l40,21.64a4.61,4.61,0,0,0,4.14-.1h0c1.12-.7,1.1-1.78,0-2.4h0L30.23,91.17a4.27,4.27,0,0,0-1.95-.44h0a4.37,4.37,0,0,0-2.19.55"/></clipPath><linearGradient id="linear-gradient-26" x1="1584.64" y1="1268.33" x2="1585.39" y2="1268.33" gradientTransform="matrix(-60.11, 1.6, -1.62, -60.12, 97381.35, 73828.59)" xlink:href="#linear-gradient-20"/><clipPath id="clip-path-27"><path class="cls-1" d="M41.63,84a1.26,1.26,0,0,0,0,2.39h0l56.41,30.7a4.55,4.55,0,0,0,4.14-.1h0a1.27,1.27,0,0,0,0-2.4h0L45.77,83.9a4.15,4.15,0,0,0-2-.44h0a4.24,4.24,0,0,0-2.19.55"/></clipPath><linearGradient id="linear-gradient-27" x1="1577.01" y1="1262.81" x2="1577.76" y2="1262.81" gradientTransform="matrix(-81.67, 2.17, -2.2, -81.69, 131688.48, 99840.51)" xlink:href="#linear-gradient-20"/><clipPath id="clip-path-28"><path class="cls-1" d="M17,86.51A1.26,1.26,0,0,0,17,88.9h0l3.19,1.74a4.54,4.54,0,0,0,4.12-.1h0a1.26,1.26,0,0,0-.05-2.39h0L21.1,86.4A4.15,4.15,0,0,0,19.18,86h0a4.37,4.37,0,0,0-2.19.55"/></clipPath><linearGradient id="linear-gradient-28" x1="1702.16" y1="1352.32" x2="1702.91" y2="1352.32" gradientTransform="matrix(-11.92, 0.32, -0.32, -11.92, 20750.47, 15672.9)" xlink:href="#linear-gradient-20"/><clipPath id="clip-path-29"><rect class="cls-1" x="41.1" y="78.19" width="55.74" height="32.63"/></clipPath><clipPath id="clip-path-32"><rect class="cls-1" x="41.83" y="78.61" width="54.29" height="31.78"/></clipPath><clipPath id="clip-path-33"><rect class="cls-1" x="42.55" y="79.02" width="52.84" height="30.94"/></clipPath><clipPath id="clip-path-34"><rect class="cls-1" x="43.28" y="79.44" width="51.4" height="30.1"/></clipPath><clipPath id="clip-path-35"><rect class="cls-1" x="44.01" y="79.85" width="49.95" height="29.27"/></clipPath><clipPath id="clip-path-36"><rect class="cls-1" x="44.73" y="80.26" width="48.51" height="28.44"/></clipPath><clipPath id="clip-path-37"><rect class="cls-1" x="45.46" y="80.67" width="47.06" height="27.6"/></clipPath><clipPath id="clip-path-38"><rect class="cls-1" x="46.18" y="81.08" width="45.61" height="26.77"/></clipPath><clipPath id="clip-path-39"><rect class="cls-1" x="46.91" y="81.49" width="44.17" height="25.96"/></clipPath><clipPath id="clip-path-40"><rect class="cls-1" x="47.64" y="81.9" width="42.72" height="25.14"/></clipPath><clipPath id="clip-path-41"><rect class="cls-1" x="48.25" y="82.23" width="41.39" height="24.4"/></clipPath><clipPath id="clip-path-42"><rect class="cls-1" x="48.96" y="82.63" width="39.96" height="23.58"/></clipPath><clipPath id="clip-path-43"><rect class="cls-1" x="49.67" y="83.03" width="38.63" height="22.83"/></clipPath><clipPath id="clip-path-44"><rect class="cls-1" x="50.38" y="83.42" width="37.21" height="22.04"/></clipPath><clipPath id="clip-path-45"><rect class="cls-1" x="51.09" y="83.82" width="35.79" height="21.23"/></clipPath><clipPath id="clip-path-46"><rect class="cls-1" x="51.8" y="84.21" width="34.38" height="20.44"/></clipPath><clipPath id="clip-path-47"><rect class="cls-1" x="52.5" y="84.61" width="32.96" height="19.64"/></clipPath><clipPath id="clip-path-48"><rect class="cls-1" x="53.21" y="85" width="31.55" height="18.85"/></clipPath><clipPath id="clip-path-49"><rect class="cls-1" x="53.91" y="85.39" width="30.15" height="18.07"/></clipPath><clipPath id="clip-path-50"><rect class="cls-1" x="54.61" y="85.79" width="28.75" height="17.28"/></clipPath><clipPath id="clip-path-51"><rect class="cls-1" x="55.31" y="86.18" width="27.36" height="16.5"/></clipPath><clipPath id="clip-path-52"><rect class="cls-1" x="55.92" y="86.57" width="26.05" height="15.72"/></clipPath><clipPath id="clip-path-53"><rect class="cls-1" x="56.52" y="86.96" width="24.81" height="14.94"/></clipPath><clipPath id="clip-path-54"><rect class="cls-1" x="57.11" y="87.35" width="23.61" height="14.17"/></clipPath><clipPath id="clip-path-55"><rect class="cls-1" x="57.69" y="87.73" width="22.44" height="13.41"/></clipPath><clipPath id="clip-path-56"><rect class="cls-1" x="58.27" y="88.12" width="21.29" height="12.64"/></clipPath><clipPath id="clip-path-57"><rect class="cls-1" x="58.83" y="88.5" width="20.17" height="11.89"/></clipPath><clipPath id="clip-path-58"><rect class="cls-1" x="59.38" y="88.88" width="19.07" height="11.14"/></clipPath><clipPath id="clip-path-59"><rect class="cls-1" x="60.04" y="89.22" width="17.78" height="10.44"/></clipPath><clipPath id="clip-path-60"><rect class="cls-1" x="60.53" y="89.61" width="16.81" height="9.68"/></clipPath><clipPath id="clip-path-61"><rect class="cls-1" x="61.02" y="90.01" width="15.88" height="8.93"/></clipPath><clipPath id="clip-path-62"><rect class="cls-1" x="61.49" y="90.41" width="14.96" height="8.18"/></clipPath><clipPath id="clip-path-63"><path class="cls-1" d="M69,70.09l-26-34Zm26,34.05,0-38.3Zm-26-34,26-4.25Zm-26,4.26,52,29.79-26-34Z"/></clipPath><linearGradient id="linear-gradient-29" x1="1581.34" y1="1264.88" x2="1582.09" y2="1264.88" gradientTransform="matrix(-69.15, 0.28, -0.26, -69.15, 109770.66, 87091.69)" gradientUnits="userSpaceOnUse"><stop offset="0" stop-color="#ffdc4f"/><stop offset="0.71" stop-color="#f25a91"/><stop offset="1" stop-color="#f25a91"/></linearGradient><clipPath id="clip-path-64"><polygon class="cls-1" points="43.05 74.35 69.03 70.09 43.02 36.05 43.05 74.35"/></clipPath><linearGradient id="linear-gradient-30" x1="1607.17" y1="1282.16" x2="1607.92" y2="1282.16" gradientTransform="matrix(-34.57, 0.14, -0.13, -34.57, 55802.83, 44160.4)" xlink:href="#linear-gradient-29"/><clipPath id="clip-path-65"><polygon class="cls-1" points="69.03 70.09 95.03 104.14 95 65.84 69.03 70.09"/></clipPath><linearGradient id="linear-gradient-31" x1="1607.42" y1="1282.45" x2="1608.17" y2="1282.45" gradientTransform="matrix(-34.57, 0.14, -0.13, -34.57, 55836.25, 44199.12)" xlink:href="#linear-gradient-29"/><clipPath id="clip-path-66"><polygon class="cls-1" points="69.03 70.09 95 65.84 43.02 36.05 69.03 70.09"/></clipPath><linearGradient id="linear-gradient-32" x1="1583.04" y1="1239.39" x2="1583.79" y2="1239.39" gradientTransform="matrix(-48.37, -57.19, 57.21, -48.39, 5760.27, 150583.27)" gradientUnits="userSpaceOnUse"><stop offset="0" stop-color="#5d3bab"/><stop offset="0.71" stop-color="#766dd4"/><stop offset="1" stop-color="#766dd4"/></linearGradient><clipPath id="clip-path-67"><polygon class="cls-1" points="43.02 36.05 95 65.84 68.99 31.79 43.02 36.05"/></clipPath><linearGradient id="linear-gradient-33" x1="1581.39" y1="1264.81" x2="1582.14" y2="1264.81" gradientTransform="matrix(-69, 0.28, -0.26, -69, 109540.69, 86880.57)" gradientUnits="userSpaceOnUse"><stop offset="0" stop-color="#c397f2"/><stop offset="0.71" stop-color="#766dd4"/><stop offset="1" stop-color="#766dd4"/></linearGradient></defs><title>Notebook</title><g id="Layer_2" data-name="Layer 2"><g id="Layer_2-2" data-name="Layer 2"><g id="g1552"><g class="cls-2"><g id="g1554"><g id="g1560"><g id="g1562"><path id="path1572" class="cls-3" d="M.15,91.54v0h0s0,0,0,.05h0s0,.1,0,.15h0a0,0,0,0,0,0,0h0a.06.06,0,0,0,0,0h0c0,.06,0,.12,0,.17h0s0,0,0,0h0a1.58,1.58,0,0,0,.13.26h0v0l0,.07h0l.06.09h0l.08.1h0a.27.27,0,0,0,.07.08h0s0,0,0,0h0l0,0h0L.93,93h0L1,93H1a3.32,3.32,0,0,0,.27.25h0l0,0h0l0,0h0c.14.11.3.26.47.38h0l.06,0h0l.53.39h0l.06,0h0l.62.39H3s0,0,.06,0h0c.2.13.41.25.62.37h0l0,0h0l.07,0h0l.42.23h0l.16.1h0l.34.18h0c.1,0,.2.11.3.15h0a2.26,2.26,0,0,0,.26.14h0L7.62,97h0l.5.26h0l65.81,36c3.93,2.14,6.35,3.62,8.31,4.21h0a7.32,7.32,0,0,0,.94.21h0l-.12-3.91a8.87,8.87,0,0,1-.93-.22h0c-2-.59-4.39-2.07-8.31-4.21h0L8,93.38l-.45-.24h0l-.08,0h0L7,92.87H7l-.12-.07h0l-.41-.2h0L5.32,92h0l-.55-.29h0l0,0h0c-.35-.18-.69-.37-1-.56h0l-.09,0h0L3,90.67h0l-.63-.41h0s0,0,0,0h0l-.55-.39h0l-.06,0h0l-.47-.38h0l0,0h0l-.28-.26h0l0,0h0a.13.13,0,0,0-.09,0h0c-.23,0-.77.33-.58,2.49"/></g></g></g></g></g><g id="g1574"><g class="cls-4"><g id="g1576"><g id="g1582"><g id="g1584"><path id="path1594" class="cls-5" d="M134.28,103.83l-47.18,29a7.91,7.91,0,0,1-1.14.6h0a4.37,4.37,0,0,1-.57.21h0a2.5,2.5,0,0,1-.39.11h0l-.3.07h0l-.28,0h0l-.28,0h-.3l-.32,0h0l-.46-.05h0l.12,3.91a3.65,3.65,0,0,0,.46.07h.62a2.48,2.48,0,0,1,.27,0h0l.29,0h0l.3-.06h0l.39-.12h0c.18-.06.37-.12.56-.2h0a8.63,8.63,0,0,0,1.15-.61h0l47.17-29c1.17-.72,1.87-1.22,1.84-1.8h0c0-1.31-.07-2.6-.11-3.91h0c0,.57-.67,1.07-1.84,1.78"/></g></g></g></g></g><g id="g1596"><g class="cls-6"><g id="g1598"><g id="g1604"><g id="g1606"><path id="path1616" class="cls-7" d="M.05,90.54v0h0s0,0,0,.06h0s0,.09,0,.15h0v0h0s0,0,0,0h0A1.77,1.77,0,0,0,.16,91h0a.06.06,0,0,0,0,0h0s0,0,0,0h0c0,.08.08.17.13.26h0v0h0l0,.08h0l.06.08h0l.07.11h0a.6.6,0,0,0,.08.08h0s0,0,0,0h0l0,0h0L.83,92h0s0,0,.05.05h0l.27.25h0l0,0h0l0,0h0l.47.39h0l.06,0h0c.17.13.35.26.54.38h0l0,.05h0l.62.39h0l.06,0H3l.62.36h0s0,0,0,0h0l.08,0h0l.42.23h0l.16.09h0l.34.18h0l.3.16H5l.25.13h0L7.53,96h0L8,96.3H8l65.81,36c3.93,2.15,6.35,3.63,8.32,4.23h0a8.76,8.76,0,0,0,.93.21h0L83,132.8a6.7,6.7,0,0,1-.94-.22h0c-2-.6-4.4-2.07-8.31-4.22h0l-65.81-36-.46-.25h0l-.08,0h0l-.44-.23h0l-.12-.07h0a4,4,0,0,1-.41-.21h0L5.22,91h0l-.55-.29h0l0,0h0c-.34-.18-.69-.36-1-.56h0l-.09,0h0c-.22-.13-.44-.25-.66-.39h0l-.65-.4h0s0,0,0,0h0l-.55-.4h0l-.05,0h0l-.48-.39h0s0,0,0,0H1l-.28-.26h0l0,0h0a.16.16,0,0,0-.09,0h0c-.23,0-.77.32-.58,2.49"/></g></g></g></g></g><g id="g1618"><g class="cls-8"><g id="g1620"><g id="g1626"><g id="g1628"><path id="path1638" class="cls-9" d="M134.18,102.83,87,131.81a8.55,8.55,0,0,1-1.14.61h0a4.3,4.3,0,0,1-.57.2h0a2.91,2.91,0,0,1-.39.12h0l-.3.06h0l-.29,0h0l-.27,0h-.62L83,132.8h0l.11,3.92.46.05h0l.32,0h.29l.28,0h0l.29,0h0l.29-.05h0c.14,0,.27-.07.4-.12h0l.56-.2h0a11.82,11.82,0,0,0,1.15-.61h0l47.17-29c1.18-.72,1.86-1.22,1.84-1.79h0c0-1.3-.07-2.6-.11-3.92h0c0,.58-.67,1.08-1.84,1.79"/></g></g></g></g></g><g id="g1640"><g class="cls-10"><g id="g1642"><g id="g1648"><g id="g1650"><path id="path1660" class="cls-11" d="M48.44,58.38l-47.18,29C-2.87,89.9,4.13,92.75,8,94.85H8l65.81,36c7.49,4.1,9.52,5.77,13.28,3.45h0l47.19-29c3.3-2,2.78-2.29-6.72-7.48h0l-65.81-36c-5.27-2.87-7.8-4.5-10.08-4.5h0a6,6,0,0,0-3.2,1.06"/></g></g></g></g></g><g id="g1674"><g class="cls-12"><g id="g1676"><g id="g1682"><g id="g1684"><path id="path1694" class="cls-13" d="M132.56,51.91l1.26,52c0,1,1.47.89.88,1.26h0c.19-.11.21.18.25.47h0c0,.3.1.61.39.43h0a2.29,2.29,0,0,0,1.25-1.81h0l-1.31-54Z"/></g></g></g></g></g><g id="g1696"><g class="cls-14"><g id="g1698"><g id="g1704"><g id="g1706"><path id="path1716" class="cls-15" d="M49,0h-.13a1.2,1.2,0,0,0-.2,0h0l0,0h0l-.1,0h0a.32.32,0,0,0-.09,0h-.09l-.16.09h0s0,0,0,0h0S46.9,1,47,1h0s-.47.73-.43.73h0l.18,0h0l.14,0h0l.15,0h0l.23.08h0l.14,0h0a3.26,3.26,0,0,1,.43.2h0l81.28,44.12c.1.06.21.12.32.2h0l.09.07h0a1.64,1.64,0,0,1,.22.14h0a.47.47,0,0,0,.12.09h0l.19.17h0l.12.1h0l.14.14h0l.24.23h0a.86.86,0,0,0,.13.14h0c0,.05.08.1.12.16h0l.16.18h0L131,48h0a1.88,1.88,0,0,1,.18.24h0a.86.86,0,0,0,.07.1h0c.07.11.14.22.22.33h0a.16.16,0,0,0,0,.07h0l.16.29h0a.41.41,0,0,1,.05.09h0l.17.32h0a.43.43,0,0,0,0,.05h0a2.43,2.43,0,0,1,.16.37h0s0,.07,0,.1h0l.09.26h0a.88.88,0,0,1,.05.15h0c0,.07,0,.15.07.23h0l0,.17h0a1.16,1.16,0,0,1,0,.18h0a2.61,2.61,0,0,1,.06.27h0c0,.09,0,.16,0,.23h0s0,.08,0,.13h0c0,.12,0,.24,0,.37h0l2.72-1.68c0-.13,0-.26,0-.38h0a.37.37,0,0,1,0-.11h0l0-.17h0s0,0,0-.07h0a2.14,2.14,0,0,0-.06-.27h0a.6.6,0,0,0,0-.12h0a.11.11,0,0,0,0-.06h0a1,1,0,0,0,0-.17h0a1.24,1.24,0,0,0,0-.16h0l0-.09h0a.61.61,0,0,0-.05-.12h0a.56.56,0,0,0,0-.12h0a.75.75,0,0,1,0-.16h0a.31.31,0,0,1-.05-.1h0s0,0,0-.06h0l-.12-.29h0v0l0,0h0a1.79,1.79,0,0,0-.12-.24h0a.9.9,0,0,0-.05-.09h0l0-.09h0a.39.39,0,0,1-.06-.11h0l-.13-.21h0l0,0h0l0,0h0a2.11,2.11,0,0,0-.18-.27h0a.08.08,0,0,1,0,0h0l-.07-.09h0a.91.91,0,0,0-.11-.16h0a.27.27,0,0,0-.07-.08h0l-.1-.13h0a.41.41,0,0,0-.05-.09h0l-.09-.09h0a1.83,1.83,0,0,1-.13-.16h0l-.07-.07h0l-.08-.08h0c-.07-.07-.14-.15-.22-.22h0a.23.23,0,0,0-.07-.07h0l-.08-.07h0l-.11-.1h0a1.56,1.56,0,0,0-.2-.16h0l-.11-.09h0l-.22-.16h0l-.1-.06h0a2.14,2.14,0,0,0-.32-.2h0L50.52.43A2.74,2.74,0,0,0,50.1.22h-.05L50,.17h0L49.73.11h0l-.07,0h0a.15.15,0,0,1-.09,0h0l-.12,0h0l-.09,0H49"/></g></g></g></g></g><g id="g1718"><g class="cls-16"><g id="g1720"><g id="g1726"><g id="g1728"><path id="path1738" class="cls-17" d="M46.23,3l1.26,52A7.34,7.34,0,0,0,51,60.68h0l81.47,44.25c1.87,1,3.34-.23,3.29-2.36h0l-1.25-51.63A7.35,7.35,0,0,0,131,45.26h0L49.53,1A3.05,3.05,0,0,0,48.07.58h0c-1.12,0-1.88.9-1.84,2.42"/></g></g></g></g></g><g id="g1740"><g class="cls-18"><g id="g1742"><g id="g1748"><g id="g1750"><path id="path1760" class="cls-19" d="M47.9,6.16,49,53.35a6.7,6.7,0,0,0,3.16,5.16h0L130.4,101c1.69.91,3,.11,3-1.82h0L132.25,52a6.7,6.7,0,0,0-3.16-5.16h0L50.9,4.35A2.85,2.85,0,0,0,49.57,4h0c-1,0-1.7.81-1.67,2.2"/></g></g></g></g></g><g id="g2158"><g class="cls-20"><g id="g2160"><g id="g2166"><g id="g2168"><path id="path2178" class="cls-21" d="M47.9,6.15,49,53.34A6.71,6.71,0,0,0,52.2,58.5h0l47.9,26L85.23,23,50.89,4.34A2.84,2.84,0,0,0,49.57,4h0c-1,0-1.7.81-1.67,2.2"/></g></g></g></g></g><g id="g1762"><g class="cls-22"><g id="g1764"><g id="g1770"><g id="g1772"><path id="path1782" class="cls-23" d="M79.82,121a1.15,1.15,0,0,0,0,2.18h0l3.69,2.06a4.18,4.18,0,0,0,3.8-.11h0a1.16,1.16,0,0,0,0-2.19h0l-3.68-2.06a3.78,3.78,0,0,0-1.77-.4h0a3.91,3.91,0,0,0-2,.52"/></g></g></g></g></g><g id="g1784"><g class="cls-24"><g id="g1786"><g id="g1792"><g id="g1794"><path id="path1804" class="cls-25" d="M71.2,116.51a1.16,1.16,0,0,0,0,2.2h0l3.69,2.05a4.21,4.21,0,0,0,3.8-.1h0c1-.64,1-1.62,0-2.2h0l-3.69-2a3.8,3.8,0,0,0-1.78-.41h0a3.9,3.9,0,0,0-2,.51"/></g></g></g></g></g><g id="g1806"><g class="cls-26"><g id="g1808"><g id="g1814"><g id="g1816"><path id="path1826" class="cls-27" d="M36.18,72.76l-8.12,5a1,1,0,0,0,0,1.94h0l7.44,4.07a3.73,3.73,0,0,0,3.35-.1h0l8.12-5a1,1,0,0,0,0-2h0l-7.43-4.06A3.41,3.41,0,0,0,38,72.32h0a3.53,3.53,0,0,0-1.78.44"/></g></g></g></g></g><g id="g1828"><g class="cls-28"><g id="g1830"><g id="g1836"><g id="g1838"><path id="path1848" class="cls-29" d="M43,68.74c-1.14.7-1.12,1.78.05,2.41h0l68.72,37.58a4.55,4.55,0,0,0,4.14-.1h0c1.13-.7,1.11-1.77,0-2.4h0L47.11,68.64a4.15,4.15,0,0,0-2-.45h0a4.34,4.34,0,0,0-2.19.55"/></g></g></g></g></g><g id="g1850"><g class="cls-30"><g id="g1852"><g id="g1858"><g id="g1860"><path id="path1870" class="cls-31" d="M21.47,81.5a1.27,1.27,0,0,0,.05,2.4h0l68.73,37.59a4.58,4.58,0,0,0,4.14-.11h0a1.28,1.28,0,0,0,0-2.41h0L25.61,81.38a4.2,4.2,0,0,0-1.94-.44h0a4.28,4.28,0,0,0-2.2.56"/></g></g></g></g></g><g id="g1872"><g class="cls-32"><g id="g1874"><g id="g1880"><g id="g1882"><path id="path1892" class="cls-33" d="M48.42,79.71c-1.13.69-1.12,1.77,0,2.4h0l56.7,30.79a4.58,4.58,0,0,0,4.14-.11h0a1.27,1.27,0,0,0,0-2.4h0L52.55,79.6a4.1,4.1,0,0,0-1.95-.45h0a4.21,4.21,0,0,0-2.18.56"/></g></g></g></g></g><g id="g1894"><g class="cls-34"><g id="g1896"><g id="g1902"><g id="g1904"><path id="path1914" class="cls-35" d="M26.11,91.84a1.27,1.27,0,0,0,.05,2.4h0L66.1,115.89a4.58,4.58,0,0,0,4.14-.11h0c1.13-.7,1.11-1.76,0-2.4h0l-40-21.65a4.08,4.08,0,0,0-1.94-.44h0a4.24,4.24,0,0,0-2.19.55"/></g></g></g></g></g><g id="g1916"><g class="cls-36"><g id="g1918"><g id="g1924"><g id="g1926"><path id="path1936" class="cls-37" d="M41.64,84.56a1.28,1.28,0,0,0,0,2.41h0l56.42,30.7a4.55,4.55,0,0,0,4.14-.11h0a1.27,1.27,0,0,0-.06-2.4h0L45.78,84.46a4.12,4.12,0,0,0-2-.44h0a4.36,4.36,0,0,0-2.19.54"/></g></g></g></g></g><g id="g1938"><g class="cls-38"><g id="g1940"><g id="g1946"><g id="g1948"><path id="path1958" class="cls-39" d="M17,87.07a1.27,1.27,0,0,0,0,2.39h0l3.19,1.74a4.5,4.5,0,0,0,4.12-.11h0a1.26,1.26,0,0,0-.05-2.38h0L21.12,87a4,4,0,0,0-1.93-.44h0a4.2,4.2,0,0,0-2.18.55"/></g></g></g></g></g><g id="g1960"><g class="cls-40"><g id="g1962"><g id="g1968"><g id="g1970"><path id="path1980" class="cls-41" d="M79.81,120.44c-1,.64-1,1.62,0,2.2h0l3.69,2a4.12,4.12,0,0,0,3.79-.1h0a1.16,1.16,0,0,0,0-2.2h0l-3.68-2a3.83,3.83,0,0,0-1.78-.41h0a4,4,0,0,0-2,.51"/></g></g></g></g></g><g id="g1982"><g class="cls-42"><g id="g1984"><g id="g1990"><g id="g1992"><path id="path2002" class="cls-43" d="M71.18,116a1.16,1.16,0,0,0,0,2.2h0l3.68,2a4.24,4.24,0,0,0,3.8-.09h0c1-.64,1-1.63,0-2.2h0L75,115.85a3.72,3.72,0,0,0-1.79-.4h0a3.92,3.92,0,0,0-2,.5"/></g></g></g></g></g><g id="g2004"><g class="cls-44"><g id="g2006"><g id="g2012"><g id="g2014"><path id="path2024" class="cls-45" d="M36.17,72.2l-8.13,5a1,1,0,0,0,0,1.94h0l7.44,4.07a3.68,3.68,0,0,0,3.34-.09h0l8.12-5a1,1,0,0,0,0-2h0l-7.43-4.06a3.33,3.33,0,0,0-1.57-.35h0a3.52,3.52,0,0,0-1.77.44"/></g></g></g></g></g><g id="g2026"><g class="cls-46"><g id="g2028"><g id="g2034"><g id="g2036"><path id="path2046" class="cls-47" d="M43,68.19a1.27,1.27,0,0,0,0,2.4h0l68.73,37.59a4.56,4.56,0,0,0,4.13-.11h0c1.13-.69,1.12-1.77,0-2.4h0L47.09,68.08a4.15,4.15,0,0,0-2-.44h0a4.27,4.27,0,0,0-2.19.55"/></g></g></g></g></g><g id="g2048"><g class="cls-48"><g id="g2050"><g id="g2056"><g id="g2058"><path id="path2068" class="cls-49" d="M21.45,80.94a1.27,1.27,0,0,0,.05,2.4h0l68.73,37.59a4.58,4.58,0,0,0,4.14-.11h0c1.13-.7,1.11-1.77-.05-2.4h0L25.59,80.83a4.08,4.08,0,0,0-1.94-.45h0a4.31,4.31,0,0,0-2.2.56"/></g></g></g></g></g><g id="g2070"><g class="cls-50"><g id="g2072"><g id="g2078"><g id="g2080"><path id="path2090" class="cls-51" d="M48.4,79.15a1.27,1.27,0,0,0,.05,2.4h0l56.7,30.79a4.58,4.58,0,0,0,4.14-.11h0c1.13-.7,1.11-1.77-.05-2.39h0L52.54,79a4.15,4.15,0,0,0-1.95-.45h0a4.25,4.25,0,0,0-2.19.56"/></g></g></g></g></g><g id="g2092"><g class="cls-52"><g id="g2094"><g id="g2100"><g id="g2102"><path id="path2112" class="cls-53" d="M26.09,91.28a1.28,1.28,0,0,0,.05,2.41h0l40,21.64a4.61,4.61,0,0,0,4.14-.1h0c1.12-.7,1.1-1.78,0-2.4h0L30.23,91.17a4.27,4.27,0,0,0-1.95-.44h0a4.37,4.37,0,0,0-2.19.55"/></g></g></g></g></g><g id="g2114"><g class="cls-54"><g id="g2116"><g id="g2122"><g id="g2124"><path id="path2134" class="cls-55" d="M41.63,84a1.26,1.26,0,0,0,0,2.39h0l56.41,30.7a4.55,4.55,0,0,0,4.14-.1h0a1.27,1.27,0,0,0,0-2.4h0L45.77,83.9a4.15,4.15,0,0,0-2-.44h0a4.24,4.24,0,0,0-2.19.55"/></g></g></g></g></g><g id="g2136"><g class="cls-56"><g id="g2138"><g id="g2144"><g id="g2146"><path id="path2156" class="cls-57" d="M17,86.51A1.26,1.26,0,0,0,17,88.9h0l3.19,1.74a4.54,4.54,0,0,0,4.12-.1h0a1.26,1.26,0,0,0-.05-2.39h0L21.1,86.4A4.15,4.15,0,0,0,19.18,86h0a4.37,4.37,0,0,0-2.19.55"/></g></g></g></g></g><g id="g2182"><g id="g2188"><g id="g2722"><g class="cls-58"><g id="g2720" class="cls-59"><g id="g2718"><g id="g2716"><g class="cls-58"><g id="g2714" class="cls-60"><g id="g2340"><g id="g2338"><g class="cls-58"><g id="g2336" class="cls-61"><g id="g2334"><path id="path2332" class="cls-62" d="M45.39,88.42c-4.25-4.25-5.41-7.62-3.18-9.23s7.59-1.27,14.69,1A104.39,104.39,0,0,1,76.6,89a79,79,0,0,1,16,11.55c4.25,4.26,5.4,7.62,3.18,9.24s-7.59,1.27-14.7-1A104.6,104.6,0,0,1,61.34,100c-6.65-3.81-12.32-7.91-16-11.56"/></g></g></g></g></g><g id="g2352"><g id="g2350"><g class="cls-63"><g id="g2348" class="cls-64"><g id="g2346"><path id="path2344" class="cls-65" d="M57.16,80.5a102.38,102.38,0,0,1,19.21,8.63,77,77,0,0,1,15.56,11.26c4.13,4.13,5.26,7.38,3.14,9s-7.3,1.31-14.23-.86c-2.21-.69-4.55-1.56-7-2.56a112.56,112.56,0,0,1-12.28-6.07A76.93,76.93,0,0,1,46,88.61c-4.14-4.13-5.26-7.38-3.15-9s7.31-1.33,14.29.87"/></g></g></g></g></g><g id="g2364"><g id="g2362"><g class="cls-66"><g id="g2360" class="cls-67"><g id="g2358"><path id="path2356" class="cls-68" d="M57.42,80.85a99.38,99.38,0,0,1,18.72,8.4,75.34,75.34,0,0,1,15.17,11c4,4,5.12,7.15,3.1,8.74s-7,1.34-13.77-.76c-2.15-.67-4.43-1.51-6.78-2.49a109.76,109.76,0,0,1-12-5.91,75.84,75.84,0,0,1-15.22-11c-4-4-5.12-7.15-3.12-8.75s7-1.37,13.89.79"/></g></g></g></g></g><g id="g2376"><g id="g2374"><g class="cls-69"><g id="g2372" class="cls-70"><g id="g2370"><path id="path2368" class="cls-71" d="M57.68,81.19a97.37,97.37,0,0,1,18.23,8.17A73.65,73.65,0,0,1,90.69,100c3.91,3.89,5,6.91,3.06,8.48s-6.71,1.38-13.31-.66c-2.09-.64-4.32-1.46-6.61-2.41a105.09,105.09,0,0,1-11.69-5.75A73.78,73.78,0,0,1,47.28,89c-3.92-3.89-5-6.91-3.09-8.5s6.74-1.43,13.49.69"/></g></g></g></g></g><g id="g2388"><g id="g2386"><g class="cls-72"><g id="g2384" class="cls-73"><g id="g2382"><path id="path2380" class="cls-74" d="M57.94,81.53a95.09,95.09,0,0,1,17.74,8,72.37,72.37,0,0,1,14.4,10.35c3.79,3.77,4.82,6.69,3,8.23s-6.42,1.42-12.84-.55c-2-.62-4.21-1.41-6.45-2.34a102.28,102.28,0,0,1-11.4-5.59A73,73,0,0,1,47.91,89.2c-3.81-3.78-4.83-6.68-3.06-8.27s6.46-1.47,13.09.6"/></g></g></g></g></g><g id="g2400"><g id="g2398"><g class="cls-75"><g id="g2396" class="cls-76"><g id="g2394"><path id="path2392" class="cls-77" d="M58.2,81.88A91.16,91.16,0,0,1,75.45,89.6a70.4,70.4,0,0,1,14,10c3.68,3.64,4.67,6.46,3,8s-6.12,1.46-12.38-.45c-2-.6-4.1-1.37-6.28-2.27a98.64,98.64,0,0,1-11.11-5.43A70.42,70.42,0,0,1,48.54,89.39c-3.71-3.65-4.68-6.44-3-8s6.17-1.53,12.69.51"/></g></g></g></g></g><g id="g2412"><g id="g2410"><g class="cls-78"><g id="g2408" class="cls-79"><g id="g2406"><path id="path2404" class="cls-80" d="M58.46,82.22a90.09,90.09,0,0,1,16.76,7.49,68.73,68.73,0,0,1,13.62,9.74c3.57,3.52,4.52,6.23,2.93,7.74s-5.83,1.5-11.92-.34c-1.92-.58-4-1.32-6.12-2.2a95.58,95.58,0,0,1-10.8-5.27,69,69,0,0,1-13.76-9.8c-3.6-3.53-4.54-6.21-3-7.77s5.89-1.59,12.29.41"/></g></g></g></g></g><g id="g2424"><g id="g2422"><g class="cls-81"><g id="g2420" class="cls-82"><g id="g2418"><path id="path2416" class="cls-83" d="M58.72,82.57A86.43,86.43,0,0,1,75,89.83a66.64,66.64,0,0,1,13.23,9.44c3.46,3.39,4.37,6,2.89,7.48s-5.54,1.54-11.45-.23c-1.87-.56-3.88-1.28-6-2.12a95.53,95.53,0,0,1-10.51-5.12,67.57,67.57,0,0,1-13.39-9.5c-3.5-3.41-4.39-6-3-7.54s5.61-1.63,11.89.33"/></g></g></g></g></g><g id="g2436"><g id="g2434"><g class="cls-84"><g id="g2432" class="cls-85"><g id="g2430"><path id="path2428" class="cls-86" d="M59,82.91a84.43,84.43,0,0,1,15.78,7A65.38,65.38,0,0,1,87.6,99.08c3.35,3.28,4.23,5.77,2.85,7.24s-5.25,1.57-11-.13c-1.81-.54-3.76-1.23-5.79-2a92.71,92.71,0,0,1-10.22-5,65.68,65.68,0,0,1-13-9.21c-3.39-3.29-4.24-5.76-2.94-7.29S52.81,81,59,82.91"/></g></g></g></g></g><g id="g2448"><g id="g2446"><g class="cls-87"><g id="g2444" class="cls-88"><g id="g2442"><path id="path2440" class="cls-89" d="M59.24,83.25a82.44,82.44,0,0,1,15.29,6.8A63,63,0,0,1,87,98.9c3.24,3.15,4.08,5.53,2.82,7s-5,1.61-10.54,0c-1.76-.52-3.65-1.19-5.62-2a88.9,88.9,0,0,1-9.92-4.8,64,64,0,0,1-12.66-8.92c-3.28-3.17-4.09-5.53-2.91-7s5-1.73,11.09.14"/></g></g></g></g></g><g id="g2460"><g id="g2458"><g class="cls-90"><g id="g2456" class="cls-91"><g id="g2454"><path id="path2452" class="cls-92" d="M59.5,83.6a79.72,79.72,0,0,1,14.8,6.57,61.73,61.73,0,0,1,12.06,8.54c3.13,3,3.93,5.31,2.78,6.74s-4.67,1.64-10.07.08c-1.71-.5-3.54-1.14-5.46-1.91A87,87,0,0,1,64,99a62.84,62.84,0,0,1-12.29-8.62c-3.18-3-4.2-5.54-2.88-6.81.79-1.75,4.76-1.79,10.69,0"/></g></g></g></g></g><g id="g2472"><g id="g2470"><g class="cls-93"><g id="g2468" class="cls-94"><g id="g2466"><path id="path2464" class="cls-95" d="M59.76,83.94a76.86,76.86,0,0,1,14.31,6.35,59.76,59.76,0,0,1,11.67,8.23c3,2.91,3.78,5.09,2.74,6.49s-4.38,1.69-9.61.18a56,56,0,0,1-5.29-1.83,84,84,0,0,1-9.33-4.47,61.6,61.6,0,0,1-11.93-8.34c-3.07-2.93-4.08-5.33-2.85-6.56.65-1.77,4.47-1.85,10.29,0"/></g></g></g></g></g><g id="g2484"><g id="g2482"><g class="cls-96"><g id="g2480" class="cls-97"><g id="g2478"><path id="path2476" class="cls-98" d="M60,84.28A75.18,75.18,0,0,1,73.84,90.4a57.66,57.66,0,0,1,11.28,7.94c2.91,2.78,3.86,5.06,2.7,6.23-.71,1.61-4.08,1.73-9.15.29a53.1,53.1,0,0,1-5.12-1.76,81.16,81.16,0,0,1-9-4.31,60.14,60.14,0,0,1-11.56-8c-3-2.81-4-5.12-2.83-6.33.52-1.78,4.2-1.89,9.9-.14"/></g></g></g></g></g><g id="g2496"><g id="g2494"><g class="cls-99"><g id="g2492" class="cls-100"><g id="g2490"><path id="path2488" class="cls-101" d="M60.28,84.63a71.78,71.78,0,0,1,13.33,5.88A56.41,56.41,0,0,1,84.5,98.15c2.8,2.66,3.73,4.85,2.66,6-.58,1.6-3.79,1.76-8.69.39-1.53-.43-3.19-1-5-1.69a80.12,80.12,0,0,1-8.75-4.15,58.13,58.13,0,0,1-11.18-7.75c-2.86-2.69-3.84-4.91-2.81-6.08.37-1.8,3.92-2,9.5-.23"/></g></g></g></g></g><g id="g2508"><g id="g2506"><g class="cls-102"><g id="g2504" class="cls-103"><g id="g2502"><path id="path2500" class="cls-104" d="M60.54,85a70.19,70.19,0,0,1,12.84,5.66A54.44,54.44,0,0,1,83.88,98c2.68,2.54,3.6,4.64,2.62,5.74-.45,1.6-3.5,1.8-8.22.5-1.48-.41-3.09-1-4.79-1.62a76.27,76.27,0,0,1-8.45-4,56.46,56.46,0,0,1-10.82-7.46c-2.76-2.57-3.72-4.7-2.78-5.84.23-1.8,3.63-2,9.1-.32"/></g></g></g></g></g><g id="g2520"><g id="g2518"><g class="cls-105"><g id="g2516" class="cls-106"><g id="g2514"><path id="path2512" class="cls-107" d="M60.8,85.32a67.08,67.08,0,0,1,12.35,5.42,53.22,53.22,0,0,1,10.11,7c2.57,2.41,3.47,4.42,2.58,5.48-.33,1.6-3.2,1.84-7.76.61a48.24,48.24,0,0,1-4.62-1.55,74.38,74.38,0,0,1-8.16-3.83,55,55,0,0,1-10.45-7.16c-2.65-2.45-3.6-4.5-2.75-5.6.09-1.82,3.35-2,8.7-.41"/></g></g></g></g></g><g id="g2532"><g id="g2530"><g class="cls-108"><g id="g2528" class="cls-109"><g id="g2526"><path id="path2524" class="cls-110" d="M61.06,85.66a64.52,64.52,0,0,1,11.86,5.2,51.1,51.1,0,0,1,9.72,6.73c2.46,2.3,3.34,4.21,2.54,5.24-.2,1.6-2.91,1.87-7.3.71a44.46,44.46,0,0,1-4.45-1.48,68,68,0,0,1-7.86-3.67,53.18,53.18,0,0,1-10.09-6.87c-2.54-2.33-3.48-4.29-2.72-5.35-.06-1.84,3.07-2.1,8.3-.51"/></g></g></g></g></g><g id="g2544"><g id="g2542"><g class="cls-111"><g id="g2540" class="cls-112"><g id="g2538"><path id="path2536" class="cls-113" d="M61.32,86a62.87,62.87,0,0,1,11.37,5A49.91,49.91,0,0,1,82,97.4c2.35,2.18,3.22,4,2.5,5-.07,1.6-2.62,1.91-6.83.82a43.45,43.45,0,0,1-4.29-1.41,66.84,66.84,0,0,1-7.57-3.51,51.72,51.72,0,0,1-9.72-6.58c-2.43-2.21-3.36-4.08-2.69-5.11-.2-1.84,2.78-2.15,7.9-.6"/></g></g></g></g></g><g id="g2556"><g id="g2554"><g class="cls-114"><g id="g2552" class="cls-115"><g id="g2550"><path id="path2548" class="cls-116" d="M61.58,86.35a59.54,59.54,0,0,1,10.88,4.74,47.78,47.78,0,0,1,8.94,6.13c2.24,2,3.09,3.78,2.46,4.73.06,1.6-2.33,2-6.37.92a37.29,37.29,0,0,1-4.12-1.33,64,64,0,0,1-7.28-3.35,49.78,49.78,0,0,1-9.35-6.28C54.42,89.81,53.5,88,54.08,87c-.35-1.86,2.5-2.21,7.5-.69"/></g></g></g></g></g><g id="g2568"><g id="g2566"><g class="cls-117"><g id="g2564" class="cls-118"><g id="g2562"><path id="path2560" class="cls-119" d="M61.84,86.69A57.91,57.91,0,0,1,72.23,91.2,46.28,46.28,0,0,1,80.78,97c2.13,1.93,3,3.57,2.42,4.49.19,1.59-2,2-5.91,1a36.72,36.72,0,0,1-4-1.26,57.83,57.83,0,0,1-7-3.19,48.43,48.43,0,0,1-9-6c-2.21-2-3.12-3.66-2.63-4.63-.49-1.87,2.22-2.25,7.1-.78"/></g></g></g></g></g><g id="g2580"><g id="g2578"><g class="cls-120"><g id="g2576" class="cls-121"><g id="g2574"><path id="path2572" class="cls-122" d="M62.1,87A55.36,55.36,0,0,1,72,91.32a44.59,44.59,0,0,1,8.17,5.52c2,1.82,2.82,3.36,2.37,4.24.32,1.6-1.74,2-5.44,1.13A32.79,32.79,0,0,1,73.31,101a55.82,55.82,0,0,1-6.69-3A46.46,46.46,0,0,1,58,92.29c-2.1-1.85-3-3.45-2.6-4.38C54.77,86,57.33,85.6,62.1,87"/></g></g></g></g></g><g id="g2592"><g id="g2590"><g class="cls-123"><g id="g2588" class="cls-124"><g id="g2586"><path id="path2584" class="cls-125" d="M62.36,87.38a52.24,52.24,0,0,1,9.41,4.05,43.47,43.47,0,0,1,7.78,5.23c1.89,1.69,2.69,3.14,2.33,4,.44,1.59-1.45,2.07-5,1.23a33.36,33.36,0,0,1-3.62-1.11,53.81,53.81,0,0,1-6.39-2.88,45.28,45.28,0,0,1-8.26-5.4c-2-1.74-2.88-3.25-2.57-4.14-.78-1.9,1.65-2.36,6.3-1"/></g></g></g></g></g><g id="g2604"><g id="g2602"><g class="cls-126"><g id="g2600" class="cls-127"><g id="g2598"><path id="path2596" class="cls-128" d="M62.62,87.72a50.42,50.42,0,0,1,8.92,3.83,41.3,41.3,0,0,1,7.39,4.92c1.78,1.57,2.57,2.93,2.29,3.74.57,1.59-1.16,2.11-4.52,1.34a29.93,29.93,0,0,1-3.45-1,52.56,52.56,0,0,1-6.1-2.72,43.63,43.63,0,0,1-7.89-5.11c-1.89-1.62-2.76-3-2.54-3.9-.92-1.91,1.37-2.41,5.9-1.06"/></g></g></g></g></g><g id="g2616"><g id="g2614"><g class="cls-129"><g id="g2612" class="cls-130"><g id="g2610"><path id="path2608" class="cls-131" d="M62.88,88.07a47.68,47.68,0,0,1,8.44,3.59,41.09,41.09,0,0,1,7,4.62C80,97.73,80.75,99,80.56,99.77c.7,1.59-.86,2.15-4,1.45a28.67,28.67,0,0,1-3.29-1,49.63,49.63,0,0,1-5.81-2.56,42.73,42.73,0,0,1-7.52-4.81c-1.78-1.5-2.64-2.83-2.51-3.66-1.06-1.93,1.08-2.47,5.5-1.15"/></g></g></g></g></g><g id="g2628"><g id="g2626"><g class="cls-132"><g id="g2624" class="cls-133"><g id="g2622"><path id="path2620" class="cls-134" d="M63.14,88.41a45.14,45.14,0,0,1,8,3.37,38.9,38.9,0,0,1,6.6,4.32c1.55,1.33,2.31,2.5,2.21,3.24.83,1.59-.57,2.18-3.59,1.55a27.28,27.28,0,0,1-3.12-.9,45.18,45.18,0,0,1-5.51-2.4,40.81,40.81,0,0,1-7.16-4.52C58.85,91.69,58,90.45,58,89.65c-1.21-1.93.8-2.51,5.1-1.24"/></g></g></g></g></g><g id="g2640"><g id="g2638"><g class="cls-135"><g id="g2636" class="cls-136"><g id="g2634"><path id="path2632" class="cls-137" d="M63.41,88.75a43.89,43.89,0,0,1,7.45,3.14,37.32,37.32,0,0,1,6.21,4c1.44,1.21,2.18,2.29,2.17,3,1,1.59-.28,2.23-3.13,1.66a24.45,24.45,0,0,1-3-.83,43.83,43.83,0,0,1-5.22-2.24,39.74,39.74,0,0,1-6.79-4.23c-1.56-1.26-2.39-2.41-2.45-3.17-1.35-2,.52-2.57,4.71-1.34"/></g></g></g></g></g><g id="g2652"><g id="g2650"><g class="cls-138"><g id="g2648" class="cls-139"><g id="g2646"><path id="path2644" class="cls-140" d="M63.67,89.1a40.49,40.49,0,0,1,7,2.91,36.43,36.43,0,0,1,5.82,3.71,5.39,5.39,0,0,1,2.13,2.74c1.08,1.59,0,2.27-2.66,1.76a20.77,20.77,0,0,1-2.79-.75,40.19,40.19,0,0,1-4.93-2.08,38.41,38.41,0,0,1-6.41-3.93,6.45,6.45,0,0,1-2.43-2.93c-1.5-2,.23-2.62,4.31-1.43"/></g></g></g></g></g><g id="g2664"><g id="g2662"><g class="cls-141"><g id="g2660" class="cls-142"><g id="g2658"><path id="path2656" class="cls-143" d="M63.93,89.44a39.07,39.07,0,0,1,6.47,2.68,34.92,34.92,0,0,1,5.43,3.42A5.93,5.93,0,0,1,77.92,98c1.21,1.58.31,2.3-2.2,1.86a18.24,18.24,0,0,1-2.62-.68,40.68,40.68,0,0,1-10.68-5.56A7.1,7.1,0,0,1,60,91c-1.64-2-.05-2.67,3.91-1.52"/></g></g></g></g></g><g id="g2676"><g id="g2674"><g class="cls-144"><g id="g2672" class="cls-145"><g id="g2670"><path id="path2668" class="cls-146" d="M64.19,89.78a36.6,36.6,0,0,1,6,2.46,33.42,33.42,0,0,1,5,3.11,8.63,8.63,0,0,1,2.06,2.24c1.09,1.76.59,2.34-1.75,2A17,17,0,0,1,73.07,99a38.24,38.24,0,0,1-10-5.11,9.94,9.94,0,0,1-2.37-2.44c-1.51-2.21-.33-2.73,3.51-1.62"/></g></g></g></g></g><g id="g2688"><g id="g2686"><g class="cls-147"><g id="g2684" class="cls-148"><g id="g2682"><path id="path2680" class="cls-149" d="M64.45,90.13a33.43,33.43,0,0,1,5.49,2.22,32.85,32.85,0,0,1,4.65,2.81,10.51,10.51,0,0,1,2,2c1.3,1.72.89,2.38-1.28,2.08A15.27,15.27,0,0,1,73,98.69a32.18,32.18,0,0,1-4-1.6,34.24,34.24,0,0,1-5.32-3,11.86,11.86,0,0,1-2.34-2.21c-1.75-2.16-.61-2.77,3.11-1.7"/></g></g></g></g></g><g id="g2700"><g id="g2698"><g class="cls-150"><g id="g2696" class="cls-151"><g id="g2694"><path id="path2692" class="cls-152" d="M64.71,90.47A34,34,0,0,1,74,95a12.71,12.71,0,0,1,2,1.74c1.51,1.65,1.18,2.4-.82,2.18A12.82,12.82,0,0,1,73,98.43,29.13,29.13,0,0,1,69.26,97a33.2,33.2,0,0,1-5-2.76,13.84,13.84,0,0,1-2.31-2c-2-2.1-.9-2.83,2.71-1.8"/></g></g></g></g></g><g id="g2712"><g id="g2710"><g class="cls-153"><g id="g2708"><g id="g2706"><path id="path2704" class="cls-154" d="M65,90.81a30.37,30.37,0,0,1,10.32,5.47c2.21,2,1.18,2.88-2.31,1.89a30.17,30.17,0,0,1-10.32-5.46c-2.21-2-1.18-2.88,2.31-1.9"/></g></g></g></g></g></g></g></g></g></g></g></g></g></g><g id="g2724"><g class="cls-155"><g id="g2726"><g id="g2732"><g id="g2734"><path id="path2744" class="cls-156" d="M69,70.09l-26-34Zm26,34.05,0-38.3Zm-26-34,26-4.25Zm-26,4.26,52,29.79-26-34Z"/></g></g></g></g></g><g id="g2746"><g class="cls-157"><g id="g2748"><g id="g2754"><g id="g2756"><path id="path2766" class="cls-158" d="M43.05,74.35l26-4.26-26-34Z"/></g></g></g></g></g><g id="g2768"><g class="cls-159"><g id="g2770"><g id="g2776"><g id="g2778"><path id="path2788" class="cls-160" d="M69,70.09l26,34.05,0-38.3Z"/></g></g></g></g></g><g id="g2790"><g class="cls-161"><g id="g2792"><g id="g2798"><g id="g2800"><path id="path2810" class="cls-162" d="M69,70.09l26-4.25L43,36.05Z"/></g></g></g></g></g><g id="g2812"><g class="cls-163"><g id="g2814"><g id="g2820"><g id="g2822"><path id="path2832" class="cls-164" d="M43,36.05,95,65.84,69,31.79Z"/></g></g></g></g></g><g id="g2842"><path id="path2844" class="cls-62" d="M61.28,16.67a.19.19,0,0,0-.2,0,.22.22,0,0,0-.09.19l-.1,35.82.29.16v0l-.29-.16a.51.51,0,0,0,.09.28.51.51,0,0,0,.2.21l20.93,12.1a.19.19,0,0,0,.2,0,.19.19,0,0,0,.08-.18l.1-35.83a.59.59,0,0,0-.08-.27.51.51,0,0,0-.2-.21ZM81.83,64.43,61.46,52.65l.1-35.17L81.93,29.25Z"/></g><g id="g2846"><path id="path2848" class="cls-62" d="M65.79,24.05l12.26,7.09a.61.61,0,0,1,.28.49c0,.18-.13.25-.28.16L65.79,24.7a.6.6,0,0,1-.28-.48c0-.18.12-.26.28-.17"/></g><g id="g2850"><path id="path2852" class="cls-62" d="M65.78,27.93,78,35a.61.61,0,0,1,.28.49c0,.18-.13.25-.28.16L65.78,28.58a.61.61,0,0,1-.28-.49c0-.18.12-.25.28-.16"/></g><g id="g2854"><path id="path2856" class="cls-62" d="M65.77,31.8,78,38.89a.64.64,0,0,1,.28.49.17.17,0,0,1-.28.16L65.77,32.45a.62.62,0,0,1-.29-.49c0-.18.13-.25.29-.16"/></g><g id="g2858"><path id="path2860" class="cls-62" d="M65.76,35.67,78,42.76a.64.64,0,0,1,.28.49c0,.18-.13.25-.28.16L65.75,36.32a.62.62,0,0,1-.28-.48c0-.18.13-.26.29-.17"/></g><g id="g2862"><path id="path2864" class="cls-62" d="M65.75,39.55,78,46.63a.62.62,0,0,1,.29.49c0,.18-.13.25-.29.16L65.74,40.2a.64.64,0,0,1-.28-.49c0-.18.13-.25.29-.16"/></g><g id="g2866"><path id="path2868" class="cls-62" d="M65.72,50.11l4.52,2.62a.62.62,0,0,1,.29.49c0,.18-.13.25-.29.16l-4.53-2.61a.64.64,0,0,1-.28-.49.18.18,0,0,1,.29-.17"/></g></g></g></svg>