<svg xmlns="http://www.w3.org/2000/svg" width="30" height="30" viewBox="0 0 32 32">
	<path xmlns="http://www.w3.org/2000/svg" fill="rgb(247, 64, 104)" d="M8.5 11.8c0-.1.1-.1.1-.2l3-3c.2-.2.5-.2.7 0s.2.5 0 .7l-2.1 2.1H23c.3 0 .5.2.5.5s-.2.5-.5.5H10.2l2.1 2.1c.2.2.2.5 0 .7-.1.1-.2.1-.4.1s-.3 0-.4-.1l-3-3s-.1-.1-.1-.2c.1.1.1-.1.1-.2zm15 8c0-.1-.1-.1-.1-.2l-3-3c-.2-.2-.5-.2-.7 0s-.2.5 0 .7l2.1 2.1H9c-.3 0-.5.2-.5.5s.2.5.5.5h12.8l-2.1 2.1c-.2.2-.2.5 0 .7.1.1.2.1.4.1s.3 0 .4-.1l3-3s.1-.1.1-.2c-.1.1-.1-.1-.1-.2z"/>
</svg>
