<svg xmlns="http://www.w3.org/2000/svg" width="600" height="193" fill="none"><g fill="#fff" clip-path="url(#a)"><path fill-rule="evenodd" d="M74.635 15.01H0v150.105h75.052v-60.459c-19.18-1.668-37.109-10.424-50.452-24.184L35.024 70.05c10.424 10.84 24.184 17.929 39.611 19.596V15.01ZM179.708 0H90.063v90.063c15.01-2.085 29.187-9.174 39.61-20.014l10.424 10.423c-13.342 13.76-31.271 22.516-50.451 24.184v75.469h90.062V0Zm330.23 37.78-.417 14.594h-10.007v12.925h10.424v27.52c0 7.088 1.667 12.508 5.42 16.261 3.336 3.752 8.756 5.837 15.427 5.837 5.004 0 9.59-1.251 14.177-3.336l-4.17-13.342c-3.335 1.25-5.837 2.085-7.922 2.085-5.003 0-7.505-2.92-7.505-8.757V65.3h16.261V52.374h-16.261V37.78h-15.427Zm-45.449 12.926c-9.173 0-17.095 3.335-22.932 9.173-6.254 6.254-9.173 13.76-8.756 23.35 0 9.59 2.918 17.512 9.173 23.349 6.254 6.254 14.176 9.173 24.183 9.173 10.841 0 20.014-3.336 27.102-10.424l-7.505-10.007c-5.42 4.587-11.675 7.088-18.763 7.088-4.586 0-8.756-1.251-12.092-3.335-3.335-2.502-5.837-5.42-6.671-9.173h47.533c.417-2.919.417-5.004.417-7.506 0-7.922-2.502-15.01-7.922-21.681-5.421-6.672-13.343-10.007-23.767-10.007ZM475.33 67.8c2.919 2.919 5.004 6.254 5.838 10.424h-33.357c.834-4.587 2.919-7.922 5.838-10.424 2.918-2.502 6.671-3.753 10.84-3.753 4.17 0 7.923 1.251 10.841 3.753Zm-101.32-43.78v90.062h15.844V89.066h6.255l17.095 25.017h18.763l-22.516-31.689 21.265-30.02H412.37l-15.844 22.932h-6.672V24.021H374.01Zm-35.858 26.685c-9.173 0-17.095 2.918-22.933 9.173-6.254 6.254-9.173 13.76-10.007 23.35 0 9.59 3.336 17.095 9.173 23.349 5.838 6.254 13.76 9.173 22.933 9.173 12.092 0 20.848-4.17 27.102-12.509l-9.59-9.59c-4.17 5.42-9.59 7.922-16.678 7.922-5.004 0-9.173-1.667-12.509-5.003-2.919-3.336-4.586-7.505-4.586-12.926 0-5.42 1.667-10.007 5.003-13.342 3.336-3.336 7.505-5.004 12.509-5.004 6.254 0 11.675 2.085 15.844 6.672l9.173-10.007c-5.837-7.506-14.593-11.258-25.434-11.258ZM286.866 24.02c-2.918 0-5.42.834-7.505 2.918-2.085 2.085-2.919 4.587-2.919 7.505 0 2.92.834 5.421 2.919 7.506 2.085 2.084 4.587 2.918 7.505 2.918 2.919 0 5.421-.834 7.505-2.918 2.085-2.085 2.919-4.587 2.919-7.506 0-2.918-.834-5.42-2.919-7.505-1.667-2.084-4.586-2.918-7.505-2.918Zm7.922 28.353h-15.844v61.709h15.844v-61.71ZM235.581 37.78l-.417 14.594h-10.007v12.925h10.424v27.52c0 7.088 1.667 12.508 5.42 16.261 3.336 3.752 8.756 5.837 15.427 5.837 4.587 0 9.173-1.251 13.343-2.919l-4.17-13.342c-2.918 1.25-5.003 1.668-7.088 1.668-5.003 0-7.505-2.92-7.505-8.757V65.3h16.261V52.374h-16.261V37.78h-15.427Zm318.137 57.123-6.254 11.675c7.922 5.837 16.678 8.756 27.102 9.173 7.505 0 13.759-1.668 18.346-5.004 4.586-3.752 7.088-8.339 7.088-14.176 0-5.004-1.668-8.756-5.42-12.092-3.753-3.335-9.59-5.837-17.096-7.505-4.586-1.25-7.505-2.085-9.172-3.336-1.668-1.25-2.502-2.501-2.502-4.17 0-3.335 2.918-5.003 8.339-5.003 2.919 0 6.254.417 9.59 1.668 3.336.834 6.254 2.502 8.339 4.17l6.671-11.258c-7.505-5.42-15.844-7.922-25.017-7.922-7.505 0-12.926 1.668-17.095 5.003-4.17 3.336-6.255 7.506-6.255 12.926 0 5.003 2.085 8.756 5.421 12.092 3.335 2.918 9.173 5.42 16.678 7.505.666.2 1.311.389 1.931.57 3.262.958 5.841 1.714 7.242 2.766 1.668 1.25 2.502 2.501 2.502 4.169 0 3.753-3.336 5.42-10.007 5.42-6.671 0-13.343-2.501-20.431-6.67Z" clip-rule="evenodd"/><path d="M240.289 180v-34.974h-12.762v-6.338h32.093v6.338h-12.734V180h-6.597Zm19.359 0v-30.076h6.252v4.004c2.593-2.957 5.675-4.436 9.247-4.436 1.364 0 2.728.24 4.091.72l-1.671 6.367c-1.344-.442-2.602-.663-3.774-.663-2.592 0-4.542.903-5.848 2.708-1.286 1.805-1.93 4.129-1.93 6.972V180h-6.367Zm31.949.403c-3.207 0-5.8-.854-7.778-2.564-1.978-1.728-2.967-3.994-2.967-6.798 0-3.035 1.113-5.465 3.341-7.289 2.228-1.825 5.186-2.737 8.873-2.737 2.939 0 5.887.509 8.845 1.527v-1.527c0-1.978-.596-3.418-1.786-4.321-1.191-.903-3.093-1.354-5.705-1.354-2.823 0-5.953.749-9.391 2.247l-1.815-5.33c2.228-.979 4.244-1.68 6.05-2.103a23.587 23.587 0 0 1 5.617-.662c4.283 0 7.567.989 9.853 2.967 2.285 1.959 3.428 4.782 3.428 8.47V180h-6.079l-.057-3.832c-1.229 1.345-2.756 2.392-4.581 3.141-1.805.729-3.754 1.094-5.848 1.094Zm-4.379-9.679c0 1.306.48 2.333 1.441 3.082.979.749 2.372 1.124 4.177 1.124 2.516 0 4.609-.673 6.28-2.017 1.671-1.344 2.622-3.054 2.852-5.128-3.053-.979-5.771-1.469-8.153-1.469-2.112 0-3.745.384-4.897 1.152-1.133.749-1.7 1.834-1.7 3.256ZM324.036 180l-12.1-30.076h6.828l8.988 22.701 8.959-22.701h6.799L331.411 180h-7.375Zm37.22.72c-4.686 0-8.489-1.459-11.408-4.379-2.9-2.938-4.35-6.731-4.35-11.379 0-4.59 1.44-8.364 4.321-11.322 2.9-2.958 6.578-4.436 11.034-4.436 3.323 0 6.232.854 8.729 2.564 2.516 1.709 4.331 4.014 5.445 6.914 1.114 2.88 1.383 6.011.806 9.391h-23.911c.538 1.998 1.671 3.64 3.4 4.927 1.728 1.286 3.745 1.93 6.05 1.93 3.61 0 6.741-1.297 9.391-3.889l3.774 4.119c-1.498 1.748-3.37 3.111-5.618 4.091-2.247.979-4.801 1.469-7.663 1.469Zm-9.391-18.063h18.063c-.423-2.285-1.45-4.129-3.083-5.531-1.613-1.421-3.61-2.132-5.992-2.132-2.324 0-4.302.701-5.935 2.103-1.613 1.383-2.631 3.236-3.053 5.56ZM382.834 180v-43.674h6.367V180h-6.367Zm25.496 0 16.104-41.312h7.893L448.258 180h-6.827l-3.313-8.729h-19.59L415.186 180h-6.856Zm12.445-14.692h15.153l-7.548-19.821-7.605 19.821ZM457.477 180l-9.91-30.076h6.741l3.169 10.025 3.832 12.1 7.259-21.203h6.137l7.202 21.318 3.889-12.215 3.198-10.025h6.654L485.681 180h-7.318l-2.765-8.326-3.947-11.725L464.794 180h-7.317Zm50.991.403c-3.207 0-5.8-.854-7.778-2.564-1.978-1.728-2.967-3.994-2.967-6.798 0-3.035 1.114-5.465 3.341-7.289 2.228-1.825 5.186-2.737 8.874-2.737 2.938 0 5.886.509 8.844 1.527v-1.527c0-1.978-.596-3.418-1.786-4.321-1.191-.903-3.093-1.354-5.704-1.354-2.824 0-5.954.749-9.392 2.247l-1.815-5.33c2.228-.979 4.244-1.68 6.05-2.103a23.587 23.587 0 0 1 5.617-.662c4.283 0 7.567.989 9.853 2.967 2.285 1.959 3.428 4.782 3.428 8.47V180h-6.078l-.058-3.832c-1.229 1.345-2.756 2.392-4.581 3.141-1.805.729-3.754 1.094-5.848 1.094Zm-4.379-9.679c0 1.306.48 2.333 1.441 3.082.979.749 2.372 1.124 4.177 1.124 2.516 0 4.609-.673 6.28-2.017 1.671-1.344 2.622-3.054 2.852-5.128-3.053-.979-5.771-1.469-8.152-1.469-2.113 0-3.746.384-4.898 1.152-1.133.749-1.7 1.834-1.7 3.256ZM533.733 180v-30.076h6.367V180h-6.367Zm-.144-35.262c-.845-.864-1.267-1.988-1.267-3.37 0-1.383.422-2.507 1.267-3.371.845-.864 1.95-1.296 3.313-1.296 1.364 0 2.468.432 3.313 1.296.865.864 1.297 1.988 1.297 3.371 0 1.382-.432 2.506-1.297 3.37-.845.845-1.949 1.268-3.313 1.268-1.363 0-2.468-.423-3.313-1.268Zm27.599 35.665c-3.015 0-5.387-.922-7.116-2.765-1.728-1.863-2.593-4.36-2.593-7.491v-14.692h-5.444v-5.531h5.444v-7.029h6.367v7.029h8.499v5.531h-8.499v14.404c0 1.479.336 2.612 1.008 3.4.692.787 1.691 1.181 2.997 1.181 1.171 0 2.506-.327 4.004-.98l2.017 5.416a15.09 15.09 0 0 1-6.684 1.527Zm21.923.058c-4.724 0-8.911-1.373-12.56-4.12l2.765-5.07c3.361 2.17 6.646 3.255 9.853 3.255 1.767 0 3.14-.259 4.12-.777.998-.538 1.498-1.287 1.498-2.248 0-.864-.49-1.613-1.47-2.247-.96-.633-2.564-1.238-4.811-1.815-3.745-.979-6.462-2.218-8.152-3.716-1.671-1.517-2.507-3.447-2.507-5.79 0-2.632.96-4.706 2.881-6.223 1.94-1.517 4.619-2.276 8.038-2.276 2.189 0 4.311.355 6.366 1.066 2.055.691 3.88 1.69 5.474 2.996l-2.996 4.84c-1.095-.922-2.458-1.661-4.091-2.218-1.613-.557-3.217-.836-4.811-.836-3.073 0-4.609.903-4.609 2.708 0 .884.451 1.604 1.354 2.161.902.557 2.535 1.133 4.897 1.728 3.668.903 6.386 2.132 8.153 3.688 1.767 1.556 2.65 3.476 2.65 5.762 0 2.765-1.104 4.983-3.313 6.654-2.189 1.652-5.099 2.478-8.729 2.478Z"/></g><defs><clipPath id="a"><path fill="#fff" d="M0 0h600v193H0z"/></clipPath></defs></svg>