<svg width="62" height="20" viewBox="0 0 62 20" fill="none" xmlns="http://www.w3.org/2000/svg">
<g clip-path="url(#clip0_1805_126596)">
<path d="M23.5007 0.354781L15.3963 19.6968H10.1095L6.12178 4.2606C5.88 3.30914 5.67046 2.96081 4.93224 2.56088C3.7298 1.90937 1.74401 1.29657 0 0.915981L0.119276 0.354781H8.6298C9.71296 0.354781 10.6897 1.07725 10.9347 2.32866L13.0398 13.5204L18.2461 0.354781H23.5007ZM44.2161 13.3817C44.2386 8.27608 37.1594 7.99548 37.2078 5.71521C37.2239 5.02177 37.8847 4.28318 39.329 4.09611C40.0446 4.00258 42.0207 3.93162 44.2612 4.96049L45.138 0.857926C43.9356 0.419287 42.3882 0 40.4605 0C35.5186 0 32.037 2.62861 32.008 6.39574C31.9757 9.17917 34.4902 10.7338 36.3857 11.6594C38.3361 12.6076 38.9905 13.2172 38.9808 14.0622C38.9679 15.3588 37.427 15.9329 35.986 15.9555C33.4715 15.9942 32.0144 15.275 30.8507 14.7331L29.9448 18.9711C31.1118 19.5065 33.2716 19.9742 35.5057 20C40.7635 20 44.1999 17.4036 44.2161 13.3817ZM57.2688 19.6968H61.8947L57.8555 0.354781H53.5873C52.6266 0.354781 51.8175 0.912756 51.4597 1.77391L43.9549 19.6968H49.2063L50.2508 16.807H56.6659L57.2688 19.6968ZM51.6886 12.8431L54.3223 5.57975L55.8374 12.8431H51.6886ZM30.6476 0.354781L26.5116 19.6968H21.5084L25.6476 0.354781H30.6476Z" fill="#1434CB"/>
</g>
<defs>
<clipPath id="clip0_1805_126596">
<rect width="61.8947" height="20" fill="white"/>
</clipPath>
</defs>
</svg>
